<svg width="24" height="24" viewBox="0 0 24 24" fill="none" xmlns="http://www.w3.org/2000/svg">
<path d="M8.46965 6.46942C8.76255 6.17653 9.23731 6.17653 9.5302 6.46942C9.82309 6.76232 9.82309 7.23708 9.5302 7.52997L5.06047 11.9997L9.5302 16.4694L9.58196 16.5261C9.82226 16.8206 9.80476 17.2554 9.5302 17.53C9.25559 17.8046 8.82087 17.822 8.52629 17.5817L8.46965 17.53L3.46965 12.53C3.17677 12.2371 3.17679 11.7623 3.46965 11.4694L8.46965 6.46942Z" fill="#211F2F"/>
<path d="M20 11.25C20.4142 11.25 20.75 11.5858 20.75 12C20.75 12.4142 20.4142 12.75 20 12.75H4C3.58579 12.75 3.25 12.4142 3.25 12C3.25 11.5858 3.58579 11.25 4 11.25H20Z" fill="#211F2F"/>
</svg>
