<svg width="15" height="15" viewBox="0 0 15 15" fill="none" xmlns="http://www.w3.org/2000/svg">
<path d="M12.0949 8.3737C11.6014 8.3737 11.1281 8.56974 10.7791 8.91868C10.4302 9.26763 10.2342 9.7409 10.2342 10.2344C10.2342 11.4904 11.8623 12.9091 11.9437 12.9696C11.9858 13.0056 12.0394 13.0254 12.0949 13.0254C12.1503 13.0254 12.2039 13.0056 12.246 12.9696C12.3274 12.9091 13.9555 11.4904 13.9555 10.2344C13.9555 9.7409 13.7595 9.26763 13.4106 8.91868C13.0616 8.56974 12.5883 8.3737 12.0949 8.3737ZM12.0949 10.9321C11.9568 10.9321 11.8219 10.8912 11.7072 10.8146C11.5925 10.7379 11.503 10.6289 11.4502 10.5014C11.3974 10.3739 11.3836 10.2336 11.4105 10.0983C11.4374 9.96291 11.5039 9.83858 11.6015 9.741C11.699 9.64342 11.8234 9.57696 11.9587 9.55004C12.0941 9.52311 12.2344 9.53693 12.3619 9.58975C12.4894 9.64256 12.5983 9.73199 12.675 9.84674C12.7517 9.96148 12.7926 10.0964 12.7926 10.2344C12.7926 10.4194 12.7191 10.5969 12.5882 10.7278C12.4574 10.8586 12.2799 10.9321 12.0949 10.9321ZM7.21054 4.18714H6.28019C6.2185 4.18714 6.15934 4.21165 6.11573 4.25526C6.07211 4.29888 6.0476 4.35804 6.0476 4.41973C6.0476 4.48141 6.07211 4.54057 6.11573 4.58419C6.15934 4.62781 6.2185 4.65231 6.28019 4.65231H7.21054C7.27222 4.65231 7.33138 4.62781 7.375 4.58419C7.41862 4.54057 7.44312 4.48141 7.44312 4.41973C7.44312 4.35804 7.41862 4.29888 7.375 4.25526C7.33138 4.21165 7.27222 4.18714 7.21054 4.18714ZM8.93168 7.61081C8.95404 7.61409 8.97676 7.61409 8.99913 7.61081C9.34436 7.50596 9.64838 7.29623 9.869 7.01074C9.88778 6.98661 9.90163 6.95902 9.90975 6.92954C9.91787 6.90006 9.92011 6.86926 9.91633 6.83892C9.91255 6.80857 9.90283 6.77927 9.88772 6.75268C9.87262 6.72609 9.85243 6.70274 9.8283 6.68396C9.80417 6.66517 9.77657 6.65132 9.74709 6.6432C9.71761 6.63508 9.68682 6.63285 9.65647 6.63663C9.62613 6.64041 9.59683 6.65013 9.57024 6.66523C9.54365 6.68034 9.5203 6.70053 9.50151 6.72466C9.3398 6.93372 9.11709 7.08734 8.86423 7.16425C8.80254 7.17319 8.74693 7.20628 8.70964 7.25622C8.67235 7.30616 8.65642 7.36887 8.66536 7.43056C8.67431 7.49225 8.70739 7.54785 8.75733 7.58515C8.80728 7.62244 8.86999 7.63837 8.93168 7.62942V7.61081ZM5.16843 8.04343C5.212 8.08675 5.27095 8.11106 5.3324 8.11106C5.39385 8.11106 5.45279 8.08675 5.49637 8.04343C5.68597 7.8551 5.93014 7.73139 6.19413 7.68989C6.25582 7.67972 6.31093 7.64545 6.34736 7.59463C6.38378 7.54382 6.39852 7.48062 6.38834 7.41893C6.37816 7.35724 6.3439 7.30213 6.29308 7.26571C6.24227 7.22929 6.17906 7.21454 6.11738 7.22472C5.76502 7.28538 5.44005 7.45355 5.18703 7.70618C5.16292 7.72661 5.14322 7.75175 5.12915 7.78005C5.11507 7.80836 5.10692 7.83924 5.10518 7.8708C5.10344 7.90236 5.10815 7.93395 5.11902 7.96363C5.12989 7.99331 5.14671 8.02046 5.16843 8.04343ZM6.39648 10.2344C6.17563 10.2348 5.95846 10.1779 5.76617 10.0693C5.7396 10.054 5.71028 10.0441 5.67988 10.0402C5.64949 10.0362 5.61862 10.0383 5.58903 10.0463C5.55944 10.0543 5.53171 10.068 5.50744 10.0867C5.48316 10.1054 5.4628 10.1287 5.44753 10.1553C5.43226 10.1819 5.42237 10.2112 5.41843 10.2416C5.41449 10.272 5.41657 10.3029 5.42456 10.3325C5.43256 10.362 5.4463 10.3898 5.465 10.414C5.48371 10.4383 5.50701 10.4587 5.53359 10.474C5.79537 10.6249 6.09197 10.7051 6.39416 10.7065H6.54534C6.60702 10.7065 6.66618 10.682 6.7098 10.6384C6.75342 10.5948 6.77792 10.5356 6.77792 10.474C6.77792 10.4123 6.75342 10.3531 6.7098 10.3095C6.66618 10.2659 6.60702 10.2414 6.54534 10.2414L6.39648 10.2344ZM9.05727 4.76163C9.11166 4.76232 9.16457 4.74392 9.2068 4.70964C9.24903 4.67536 9.27791 4.62736 9.28842 4.57399C9.29893 4.52063 9.2904 4.46526 9.26431 4.41753C9.23823 4.3698 9.19624 4.33272 9.14565 4.31274C8.93722 4.2288 8.71446 4.18614 8.48976 4.18714H8.14088C8.0792 4.18714 8.02004 4.21165 7.97642 4.25526C7.9328 4.29888 7.90829 4.35804 7.90829 4.41973C7.90829 4.48141 7.9328 4.54057 7.97642 4.58419C8.02004 4.62781 8.0792 4.65231 8.14088 4.65231H8.48976C8.65398 4.65211 8.81668 4.68371 8.96889 4.74535C8.99701 4.75647 9.02703 4.762 9.05727 4.76163ZM6.84537 7.44335C6.84537 7.50504 6.86988 7.5642 6.9135 7.60782C6.95712 7.65143 7.01628 7.67594 7.07796 7.67594H8.00831C8.06999 7.67594 8.12915 7.65143 8.17277 7.60782C8.21639 7.5642 8.24089 7.50504 8.24089 7.44335C8.24089 7.38167 8.21639 7.32251 8.17277 7.27889C8.12915 7.23527 8.06999 7.21077 8.00831 7.21077H7.07796C7.01628 7.21077 6.95712 7.23527 6.9135 7.27889C6.86988 7.32251 6.84537 7.38167 6.84537 7.44335ZM10.0016 6.23158C10.0633 6.23158 10.1224 6.20707 10.166 6.16345C10.2097 6.11983 10.2342 6.06068 10.2342 5.99899V5.92224C10.2348 5.58737 10.1387 5.25945 9.95738 4.97794C9.92257 4.92961 9.87055 4.89649 9.81204 4.88538C9.75353 4.87427 9.69299 4.88603 9.64289 4.91824C9.59279 4.95044 9.55696 5.00064 9.54277 5.05848C9.52859 5.11632 9.53713 5.1774 9.56664 5.22913C9.70035 5.43716 9.77066 5.6796 9.76899 5.92689V5.98503C9.76899 6.04672 9.79349 6.10588 9.83711 6.1495C9.88073 6.19312 9.93989 6.21762 10.0016 6.21762V6.23158ZM4.94747 8.46208C4.91738 8.45672 4.88653 8.45735 4.85669 8.46392C4.82684 8.47048 4.79858 8.48287 4.77353 8.50037C4.74847 8.51786 4.72711 8.54013 4.71066 8.56588C4.69421 8.59164 4.683 8.62038 4.67767 8.65048C4.6154 9.0054 4.66414 9.3709 4.81722 9.69711C4.82983 9.72533 4.84794 9.75076 4.8705 9.7719C4.89305 9.79304 4.91959 9.80947 4.94856 9.82023C4.97754 9.831 5.00837 9.83588 5.03925 9.83459C5.07013 9.8333 5.10045 9.82587 5.12843 9.81273C5.15641 9.79959 5.18148 9.78101 5.2022 9.75807C5.22291 9.73512 5.23884 9.70828 5.24906 9.67911C5.25928 9.64994 5.26359 9.61902 5.26172 9.58817C5.25986 9.55732 5.25186 9.52714 5.2382 9.49942C5.1262 9.26011 5.09048 8.99217 5.13586 8.73188C5.14122 8.70179 5.1406 8.67095 5.13403 8.6411C5.12746 8.61125 5.11507 8.583 5.09758 8.55794C5.08008 8.53288 5.05782 8.51152 5.03206 8.49507C5.00631 8.47862 4.97756 8.46741 4.94747 8.46208ZM8.40603 10.2344H7.47568C7.414 10.2344 7.35484 10.2589 7.31122 10.3025C7.2676 10.3461 7.2431 10.4053 7.2431 10.467C7.2431 10.5287 7.2676 10.5878 7.31122 10.6314C7.35484 10.6751 7.414 10.6996 7.47568 10.6996H8.40603C8.46772 10.6996 8.52688 10.6751 8.57049 10.6314C8.61411 10.5878 8.63862 10.5287 8.63862 10.467C8.63862 10.4053 8.61411 10.3461 8.57049 10.3025C8.52688 10.2589 8.46772 10.2344 8.40603 10.2344ZM3.25656 4.15458L5.34984 2.99165L3.37053 1.89151C3.33517 1.8711 3.29507 1.86035 3.25424 1.86035C3.21341 1.86035 3.1733 1.8711 3.13794 1.89151L1.16329 2.99165L3.25656 4.15458ZM3.48915 6.88282L5.46381 5.78734C5.47198 5.78167 5.47975 5.77545 5.48707 5.76873C5.5006 5.75923 5.51307 5.74831 5.52428 5.73617C5.54195 5.71322 5.55679 5.68823 5.56847 5.66174C5.57003 5.64627 5.57003 5.63069 5.56847 5.61522C5.574 5.60476 5.57867 5.59387 5.58243 5.58266V3.39402L3.48915 4.55695V6.88282ZM0.94698 5.65941C0.958648 5.68592 0.973487 5.71091 0.991172 5.73384C1.00238 5.74599 1.01486 5.7569 1.02839 5.7664C1.03571 5.77313 1.04348 5.77934 1.05164 5.78501L3.02398 6.88282V4.55695L0.930699 3.39402V5.58266C0.930001 5.59273 0.930001 5.60283 0.930699 5.6129C0.934463 5.62893 0.939921 5.64453 0.94698 5.65941Z" fill="#0B0B0B" fill-opacity="0.3"/>
</svg>
