<svg width="42" height="42" viewBox="0 0 42 42" fill="none" xmlns="http://www.w3.org/2000/svg">
<path d="M21 36.75V22.75M21 36.75L9.58752 28.5982C9.17695 28.305 8.97166 28.1583 8.86083 27.943C8.75 27.7276 8.75 27.4753 8.75 26.9708V14M21 36.75L32.4125 28.5982C32.823 28.305 33.0283 28.1583 33.1392 27.943C33.25 27.7276 33.25 27.4753 33.25 26.9708V14M21 22.75L8.75 14M21 22.75L33.25 14M8.75 14L19.8375 6.08034C20.3989 5.67938 20.6795 5.4789 21 5.4789C21.3205 5.4789 21.6011 5.67938 22.1625 6.08034L33.25 14" stroke="#696969" stroke-width="2" stroke-linejoin="round"/>
</svg>
