<svg width="22" height="22" viewBox="0 0 22 22" fill="none" xmlns="http://www.w3.org/2000/svg">
<path d="M11.0007 19.25V11.9167M11.0007 19.25L5.35171 15.215C4.97536 14.9462 4.78718 14.8118 4.68558 14.6144C4.58398 14.417 4.58398 14.1857 4.58398 13.7232V7.33333M11.0007 19.25L16.6496 15.215C17.0259 14.9462 17.2141 14.8118 17.3157 14.6144C17.4173 14.417 17.4173 14.1857 17.4173 13.7232V7.33333M11.0007 11.9167L4.58398 7.33333M11.0007 11.9167L17.4173 7.33333M4.58398 7.33333L9.93505 3.51115C10.4496 3.1436 10.7069 2.95983 11.0007 2.95983C11.2944 2.95983 11.5517 3.1436 12.0663 3.51114L17.4173 7.33333" stroke="#036BB4" stroke-width="1.375" stroke-linejoin="round"/>
</svg>
