<svg width="22" height="22" viewBox="0 0 22 22" fill="none" xmlns="http://www.w3.org/2000/svg">
<path d="M11.0002 19.25V11.9167M11.0002 19.25L5.42102 15.2649C5.01045 14.9716 4.80516 14.825 4.69433 14.6096C4.5835 14.3943 4.5835 14.142 4.5835 13.6374V7.33333M11.0002 19.25L16.5793 15.2649C16.9899 14.9716 17.1952 14.825 17.306 14.6096C17.4168 14.3943 17.4168 14.142 17.4168 13.6374V7.33333M11.0002 11.9167L4.5835 7.33333M11.0002 11.9167L17.4168 7.33333M4.5835 7.33333L9.83769 3.58034C10.399 3.17938 10.6797 2.9789 11.0002 2.9789C11.3206 2.9789 11.6013 3.17938 12.1626 3.58034L17.4168 7.33333" stroke="#7D7D7D" stroke-width="1.5" stroke-linejoin="round"/>
</svg>
