<svg width="42" height="42" viewBox="0 0 42 42" fill="none" xmlns="http://www.w3.org/2000/svg">
<path d="M28 24.5C28 25.9497 29.1753 27.125 30.625 27.125C32.0747 27.125 33.25 25.9497 33.25 24.5C33.25 23.0503 32.0747 21.875 30.625 21.875C29.1753 21.875 28 23.0503 28 24.5Z" stroke="#696969" stroke-width="2"/>
<path d="M33.075 14C33.1897 13.4346 33.25 12.8493 33.25 12.25C33.25 7.41751 29.3325 3.5 24.5 3.5C19.6675 3.5 15.75 7.41751 15.75 12.25C15.75 12.8493 15.8103 13.4346 15.925 14" stroke="#696969" stroke-width="2"/>
<path d="M12.25 13.9882H28C32.9497 13.9882 35.4246 13.9882 36.9623 15.5266C38.5 17.065 38.5 19.5411 38.5 24.4932V27.9949C38.5 32.9471 38.5 35.4231 36.9623 36.9616C35.4246 38.5 32.9497 38.5 28 38.5H17.5C10.9003 38.5 7.60051 38.5 5.55025 36.4488C3.5 34.3975 3.5 31.0961 3.5 24.4932V20.9915C3.5 14.3887 3.5 11.0873 5.55025 9.03603C7.20065 7.38483 9.66076 7.0628 14 7H17.5" stroke="#696969" stroke-width="2" stroke-linecap="round"/>
</svg>
