<svg width="24" height="24" viewBox="0 0 24 24" fill="none" xmlns="http://www.w3.org/2000/svg">
<path d="M3.71716 10.579C3.7817 10.5783 3.7817 10.5783 3.84755 10.5775C3.98941 10.5762 4.13127 10.5755 4.27313 10.575C4.37228 10.5745 4.47142 10.5739 4.57056 10.5734C4.77837 10.5724 4.98618 10.5719 5.194 10.5715C5.4591 10.571 5.72417 10.5688 5.98926 10.5661C6.19412 10.5644 6.39897 10.5639 6.60383 10.5637C6.7015 10.5634 6.79916 10.5627 6.89681 10.5615C7.54813 10.5538 8.01362 10.585 8.52814 11.0247C8.82905 11.3601 8.93006 11.7503 8.96466 12.1904C9.01276 12.3792 9.08033 12.4433 9.23419 12.5628C9.37887 12.5966 9.51989 12.5942 9.66794 12.5922C9.71126 12.5926 9.75458 12.5929 9.79922 12.5933C9.94226 12.5941 10.0852 12.5934 10.2283 12.5927C10.3279 12.593 10.4276 12.5935 10.5272 12.5941C10.7897 12.5955 11.052 12.5955 11.3145 12.5952C11.7339 12.5948 12.1534 12.5963 12.5729 12.5981C12.7192 12.5985 12.8654 12.5983 13.0116 12.5979C13.1018 12.5981 13.192 12.5983 13.2823 12.5985C13.3226 12.5982 13.363 12.5979 13.4046 12.5977C13.8105 12.5996 14.1634 12.6768 14.4842 12.9378C14.7407 13.2158 14.8247 13.5053 14.8215 13.8823C14.8213 13.9285 14.8213 13.9285 14.8211 13.9757C14.8206 14.0731 14.8194 14.1705 14.8182 14.2679C14.8177 14.3344 14.8173 14.4008 14.8169 14.4673C14.8159 14.6293 14.8143 14.7914 14.8123 14.9534C14.8425 14.9525 14.8727 14.9515 14.9038 14.9505C15.0433 14.9465 15.1826 14.9441 15.3221 14.9417C15.3696 14.9401 15.4171 14.9386 15.466 14.937C15.8458 14.9321 16.1698 14.991 16.4735 15.2314C16.7663 15.596 16.8231 15.8951 16.7811 16.3597C16.7201 16.6782 16.6225 16.989 16.532 17.3001C16.5052 17.3942 16.4785 17.4884 16.4518 17.5825C16.3924 17.7914 16.3326 18.0002 16.2727 18.209C16.1703 18.5664 16.0705 18.9245 15.971 19.2827C15.9115 19.4964 15.8517 19.71 15.7919 19.9235C15.7426 20.0994 15.6935 20.2754 15.6447 20.4514C15.5982 20.619 15.5512 20.7864 15.5039 20.9537C15.4782 21.045 15.453 21.1364 15.4278 21.2278C15.2367 21.9002 14.9871 22.4119 14.3683 22.7709C14.0789 22.9114 13.8352 22.9358 13.5191 22.9347C13.4516 22.935 13.4516 22.935 13.3828 22.9354C13.2324 22.936 13.0819 22.9359 12.9314 22.9358C12.8234 22.9361 12.7155 22.9364 12.6075 22.9368C12.3143 22.9376 12.0212 22.9378 11.728 22.9379C11.4833 22.938 11.2385 22.9383 10.9938 22.9386C10.4494 22.9394 9.90493 22.9396 9.3605 22.9396C9.31153 22.9396 9.31153 22.9396 9.26157 22.9396C9.22888 22.9396 9.1962 22.9396 9.16252 22.9395C8.63279 22.9395 8.10306 22.9404 7.57333 22.9417C7.029 22.9431 6.48468 22.9437 5.94036 22.9436C5.63492 22.9436 5.32948 22.9439 5.02405 22.9449C4.73679 22.9458 4.44955 22.9458 4.16229 22.9451C4.05693 22.945 3.95156 22.9452 3.8462 22.9458C3.70223 22.9465 3.55831 22.9461 3.41434 22.9454C3.37277 22.9458 3.33119 22.9463 3.28835 22.9468C2.96506 22.9432 2.72283 22.8568 2.47449 22.6475C2.43724 22.6037 2.43724 22.6037 2.39923 22.5589C2.36108 22.5158 2.36108 22.5158 2.32215 22.4717C2.13159 22.1765 2.0885 21.9026 2.09134 21.5601C2.09101 21.4984 2.09101 21.4984 2.09067 21.4355C2.09011 21.2984 2.09056 21.1614 2.091 21.0244C2.09081 20.9258 2.09056 20.8272 2.09025 20.7287C2.08961 20.4614 2.08986 20.1942 2.0903 19.927C2.09066 19.647 2.09033 19.3671 2.09011 19.0871C2.08985 18.6168 2.09019 18.1466 2.09086 17.6763C2.09163 17.1332 2.09138 16.5902 2.0906 16.0471C2.08997 15.5803 2.08988 15.1135 2.09024 14.6468C2.09046 14.3682 2.09049 14.0896 2.09003 13.8111C2.08962 13.5491 2.08991 13.2871 2.09072 13.025C2.0909 12.9291 2.09085 12.8331 2.09054 12.7372C2.08695 11.5166 2.08695 11.5166 2.53107 11.0159C2.90572 10.6967 3.23144 10.5802 3.71716 10.579ZM3.08185 11.6429C2.93092 11.8693 2.89438 12.0453 2.8948 12.3168C2.89472 12.348 2.89464 12.3792 2.89455 12.4114C2.8944 12.5156 2.89491 12.6198 2.89543 12.724C2.89545 12.7989 2.89544 12.8737 2.89539 12.9485C2.89536 13.1515 2.89591 13.3545 2.89656 13.5575C2.89715 13.7697 2.8972 13.9819 2.89732 14.1941C2.89761 14.5958 2.89838 14.9976 2.89932 15.3993C2.90037 15.8567 2.90088 16.3141 2.90135 16.7715C2.90233 17.7124 2.90398 18.6532 2.90607 19.5941C2.98933 19.4336 3.04069 19.2782 3.08924 19.1037C3.09764 19.0737 3.10604 19.0437 3.1147 19.0128C3.13286 18.9479 3.15094 18.883 3.16894 18.818C3.19755 18.7148 3.22642 18.6117 3.25536 18.5087C3.33759 18.2156 3.41937 17.9225 3.50093 17.6293C3.55092 17.4497 3.60122 17.2701 3.65171 17.0907C3.67078 17.0226 3.68972 16.9546 3.70855 16.8864C3.90059 16.1915 4.08735 15.6411 4.69409 15.2133C5.15196 14.9659 5.59688 14.9795 6.10237 14.98C6.18879 14.9796 6.27521 14.9791 6.36164 14.9786C6.5953 14.9773 6.82896 14.9769 7.06263 14.9766C7.30718 14.9761 7.55173 14.9749 7.79627 14.9738C8.25893 14.9717 8.72159 14.9704 9.18426 14.9693C9.71117 14.968 10.2381 14.966 10.765 14.9639C11.8485 14.9595 12.932 14.9561 14.0154 14.9534C14.0223 14.7474 14.0264 14.5414 14.0301 14.3353C14.0321 14.2769 14.034 14.2185 14.036 14.1583C14.056 13.8193 14.056 13.8193 13.9061 13.5331C13.7497 13.4335 13.6341 13.4007 13.4523 13.4007C13.4141 13.4006 13.376 13.4005 13.3366 13.4004C13.2949 13.4005 13.2532 13.4006 13.2102 13.4007C13.1662 13.4006 13.1221 13.4005 13.0767 13.4004C12.9808 13.4002 12.885 13.4001 12.7892 13.4001C12.5851 13.3999 12.381 13.3989 12.1769 13.398C11.7969 13.3962 11.417 13.3947 11.037 13.3948C10.7727 13.3949 10.5084 13.3938 10.2442 13.3919C10.1437 13.3914 10.0432 13.3914 9.9427 13.3917C8.90019 13.3951 8.90019 13.3951 8.57794 13.1253C8.31336 12.8408 8.20338 12.5805 8.16486 12.1937C8.12547 11.9021 8.08082 11.7422 7.87482 11.5316C7.6409 11.3847 7.45474 11.3707 7.18744 11.3727C7.14762 11.3725 7.1078 11.3722 7.06677 11.372C6.93572 11.3714 6.8047 11.3718 6.67365 11.3723C6.58224 11.3722 6.49083 11.372 6.39942 11.3719C6.20808 11.3716 6.01675 11.3719 5.82541 11.3726C5.58047 11.3734 5.33554 11.3729 5.0906 11.3721C4.90191 11.3716 4.71324 11.3718 4.52455 11.3721C4.43425 11.3722 4.34395 11.3721 4.25364 11.3718C4.12732 11.3714 4.00102 11.372 3.8747 11.3727C3.83758 11.3725 3.80046 11.3722 3.76222 11.3719C3.48151 11.3751 3.2814 11.4323 3.08185 11.6429ZM4.78107 16.1722C4.62211 16.4397 4.53338 16.7211 4.45221 17.0198C4.43999 17.0637 4.42777 17.1075 4.41518 17.1527C4.38964 17.2447 4.36428 17.3368 4.3391 17.4289C4.30046 17.5702 4.26121 17.7112 4.22187 17.8523C4.19705 17.942 4.17227 18.0316 4.14752 18.1213C4.13581 18.1635 4.12409 18.2057 4.11202 18.2492C4.10137 18.2883 4.09071 18.3275 4.07973 18.3678C4.0703 18.4021 4.06088 18.4365 4.05116 18.4719C4.02601 18.5702 4.02601 18.5702 4.03107 18.7034C7.74357 18.7034 11.4561 18.7034 15.2811 18.7034C15.7645 17.3393 15.7645 17.3393 15.9842 15.9378C15.9119 15.8392 15.8585 15.8047 15.7498 15.7503C15.6154 15.7454 15.4822 15.7434 15.3478 15.7434C15.2846 15.7432 15.2846 15.7432 15.2202 15.7429C15.0782 15.7424 14.9362 15.7422 14.7942 15.742C14.6927 15.7417 14.5912 15.7414 14.4898 15.7411C14.2134 15.7403 13.9371 15.7398 13.6608 15.7394C13.4882 15.7391 13.3157 15.7389 13.1431 15.7386C12.6033 15.7377 12.0636 15.737 11.5238 15.7366C10.9004 15.7362 10.277 15.7349 9.65364 15.733C9.17207 15.7316 8.6905 15.7309 8.20893 15.7308C7.9212 15.7307 7.63347 15.7302 7.34574 15.7291C7.07496 15.728 6.80418 15.7278 6.5334 15.7282C6.43408 15.7283 6.33476 15.728 6.23545 15.7273C6.09968 15.7265 5.96396 15.7268 5.82819 15.7275C5.78904 15.7269 5.74989 15.7264 5.70955 15.7259C5.32522 15.7301 5.02669 15.872 4.78107 16.1722ZM3.79669 19.5003C3.68637 19.7897 3.68637 19.7897 3.59277 20.082C3.5773 20.1357 3.5773 20.1357 3.56152 20.1905C3.55097 20.2278 3.54042 20.2651 3.52954 20.3036C3.5183 20.3431 3.50705 20.3826 3.49547 20.4233C3.47195 20.5061 3.44851 20.5889 3.42516 20.6718C3.3894 20.7984 3.35315 20.9249 3.31687 21.0513C3.29398 21.1321 3.27112 21.213 3.24829 21.2938C3.23204 21.3502 3.23204 21.3502 3.21545 21.4078C3.13707 21.6693 3.13707 21.6693 3.14044 21.9378C3.21722 22.048 3.2789 22.1154 3.41383 22.1427C3.52513 22.1497 3.63506 22.1505 3.74659 22.1494C3.81075 22.1499 3.81075 22.1499 3.8762 22.1504C4.01986 22.1513 4.16349 22.1508 4.30715 22.1503C4.41001 22.1506 4.51288 22.1511 4.61575 22.1515C4.89545 22.1526 5.17515 22.1525 5.45486 22.152C5.6883 22.1518 5.92174 22.1521 6.15518 22.1525C6.73749 22.1533 7.3198 22.153 7.90211 22.1522C8.40745 22.1515 8.91278 22.1522 9.41812 22.1535C9.93723 22.1549 10.4563 22.1554 10.9754 22.155C11.2668 22.1548 11.5581 22.1549 11.8495 22.1558C12.1236 22.1567 12.3976 22.1564 12.6717 22.1553C12.7723 22.155 12.8728 22.1552 12.9733 22.1558C13.1107 22.1565 13.2481 22.1558 13.3855 22.1548C13.4251 22.1553 13.4648 22.1559 13.5056 22.1564C13.8593 22.1509 14.0801 22.0082 14.3319 21.7679C14.611 21.3995 14.6971 20.8595 14.8192 20.4194C14.8479 20.3163 14.8768 20.2133 14.9059 20.1103C15.0041 19.8095 15.0041 19.8095 15.0467 19.5003C11.3342 19.5003 7.62169 19.5003 3.79669 19.5003Z" fill="#727272"/>
<path d="M17.8738 3.99271C18.5699 4.64751 18.9182 5.49767 18.9973 6.43735C19.0256 7.39158 18.7006 8.23708 18.0668 8.947C17.4077 9.63705 16.5922 10.0224 15.6393 10.0498C14.6544 10.0604 13.8071 9.7797 13.0779 9.0933C12.4308 8.45238 12.045 7.64231 12.0288 6.72457C12.0309 5.75971 12.2788 4.94827 12.9373 4.2183C12.9656 4.18567 12.9938 4.15304 13.023 4.11942C13.5004 3.60183 14.2119 3.24821 14.906 3.14017C14.9574 3.13156 14.9574 3.13156 15.0098 3.12278C16.0517 2.98236 17.0902 3.2944 17.8738 3.99271ZM13.5466 4.73392C12.9936 5.39711 12.7701 6.13024 12.8435 6.98392C12.9156 7.429 12.9156 7.429 13.1716 7.7808C13.1929 7.74889 13.2142 7.71699 13.2361 7.68412C13.4738 7.41816 13.7845 7.22293 14.1091 7.07767C14.099 7.05145 14.0888 7.02522 14.0784 6.99821C13.9262 6.55983 13.8856 6.06424 14.0606 5.62546C14.2633 5.23015 14.5644 4.93264 14.9881 4.78666C15.5003 4.65564 15.9432 4.72835 16.4075 4.97123C16.7486 5.18669 16.9413 5.54532 17.0403 5.92795C17.1154 6.33283 17.0345 6.68661 16.9216 7.07767C16.9618 7.10094 17.002 7.1242 17.0434 7.14817C17.3513 7.32991 17.6234 7.50651 17.8591 7.7808C18.1363 7.47035 18.2236 6.87053 18.2052 6.4639C18.0936 5.6166 17.7575 4.96616 17.0916 4.41459C15.9874 3.59612 14.4995 3.78107 13.5466 4.73392ZM14.8123 5.84135C14.6917 6.06204 14.6691 6.26936 14.7185 6.51517C14.809 6.7215 14.9056 6.85862 15.0935 6.98392C15.2258 6.99683 15.3509 7.00342 15.4832 7.00443C15.5182 7.00597 15.5532 7.00751 15.5893 7.0091C15.7791 7.01093 15.9003 6.99598 16.0508 6.87498C16.2135 6.70615 16.3066 6.55593 16.3167 6.3165C16.3002 6.0721 16.2436 5.90521 16.0779 5.7183C15.8774 5.55023 15.6886 5.44429 15.4222 5.4647C15.1608 5.51799 14.9694 5.62276 14.8123 5.84135ZM13.9685 8.06205C13.8543 8.18324 13.746 8.30832 13.6404 8.43705C13.922 8.84939 14.4029 9.07234 14.874 9.20298C15.6656 9.34484 16.3833 9.19897 17.0623 8.76517C17.162 8.69114 17.2519 8.61498 17.3435 8.5308C17.2305 8.20107 17.0547 8.03469 16.7506 7.87821C16.4338 7.73294 16.2252 7.73033 15.8844 7.80314C15.5416 7.86563 15.2344 7.84114 14.906 7.73392C14.5611 7.73392 14.2362 7.84198 13.9685 8.06205Z" fill="#727272"/>
<path d="M18.4045 10.4898C18.4857 10.4882 18.4857 10.4882 18.5686 10.4866C18.8164 10.4832 19.0643 10.4805 19.3122 10.4787C19.4428 10.4777 19.5734 10.4757 19.704 10.473C19.8925 10.469 20.081 10.4677 20.2695 10.4666C20.3277 10.4651 20.3858 10.4635 20.4457 10.4619C20.7233 10.4626 20.9079 10.4703 21.123 10.6565C21.1768 10.7128 21.2296 10.7701 21.2812 10.8284C21.3369 10.8817 21.3929 10.9347 21.4495 10.9872C21.5019 11.0386 21.5542 11.0902 21.6064 11.1419C21.6334 11.1679 21.6604 11.1939 21.6882 11.2207C21.7266 11.2588 21.7266 11.2588 21.7659 11.2977C21.7888 11.3202 21.8117 11.3426 21.8353 11.3658C21.9682 11.5389 21.9439 11.755 21.945 11.9641C21.9454 12.0148 21.9454 12.0148 21.9457 12.0665C21.9464 12.178 21.9467 12.2896 21.947 12.4011C21.9472 12.4789 21.9475 12.5566 21.9478 12.6344C21.9483 12.7974 21.9485 12.9604 21.9487 13.1234C21.949 13.3318 21.9501 13.5402 21.9514 13.7485C21.9523 13.9092 21.9525 14.0699 21.9526 14.2305C21.9528 14.3073 21.9531 14.3841 21.9538 14.4609C21.9546 14.5686 21.9545 14.6762 21.9542 14.7839C21.9544 14.8757 21.9544 14.8757 21.9547 14.9693C21.9305 15.2107 21.8616 15.3921 21.7031 15.5804C21.529 15.7218 21.3673 15.7098 21.1509 15.711C21.1188 15.7112 21.0867 15.7114 21.0537 15.7117C20.9475 15.7124 20.8413 15.7127 20.7352 15.7129C20.6613 15.7132 20.5875 15.7135 20.5136 15.7137C20.3588 15.7142 20.2039 15.7145 20.049 15.7147C19.8508 15.7149 19.6526 15.7161 19.4543 15.7174C19.3018 15.7183 19.1492 15.7185 18.9966 15.7186C18.9236 15.7187 18.8505 15.7191 18.7774 15.7197C18.6751 15.7205 18.5728 15.7204 18.4705 15.7201C18.4123 15.7203 18.3541 15.7205 18.2942 15.7206C18.0692 15.6954 17.952 15.6124 17.8007 15.4485C17.6507 15.2288 17.6646 15.0096 17.6643 14.7505C17.664 14.7112 17.6638 14.6719 17.6636 14.6315C17.6629 14.5017 17.6626 14.3719 17.6623 14.2421C17.662 14.1517 17.6618 14.0613 17.6615 13.9709C17.661 13.7814 17.6607 13.5919 17.6606 13.4024C17.6603 13.16 17.6592 12.9176 17.6578 12.6752C17.657 12.4885 17.6567 12.3018 17.6567 12.1151C17.6565 12.0257 17.6561 11.9364 17.6555 11.847C17.6547 11.7218 17.6548 11.5966 17.6551 11.4714C17.6547 11.4348 17.6543 11.3981 17.6538 11.3603C17.656 11.0708 17.7151 10.8503 17.9062 10.6233C18.0652 10.4941 18.2068 10.4934 18.4045 10.4898ZM18.4687 11.2972C18.4687 12.4883 18.4687 13.6794 18.4687 14.9065C19.3504 14.9065 20.2321 14.9065 21.1406 14.9065C21.157 14.3788 21.157 14.3788 21.168 13.8509C21.1714 13.6352 21.1753 13.4195 21.183 13.2039C21.2505 12.3421 21.2505 12.3421 20.9923 11.5538C20.7368 11.2848 20.418 11.254 20.0617 11.2422C19.8698 11.2426 19.6803 11.2526 19.4882 11.262C19.1518 11.2736 18.8153 11.2852 18.4687 11.2972Z" fill="#727272"/>
<path d="M4.41662 4.01747C4.49947 4.01716 4.49947 4.01716 4.58398 4.01686C4.70049 4.01659 4.81699 4.01656 4.93349 4.01677C5.11177 4.01692 5.29001 4.01581 5.46829 4.01463C5.5816 4.01452 5.69491 4.01449 5.80822 4.01454C5.88814 4.01389 5.88814 4.01389 5.96967 4.01323C6.04429 4.01367 6.04429 4.01367 6.12043 4.01411C6.16403 4.01408 6.20763 4.01405 6.25255 4.01402C6.49355 4.04857 6.64869 4.19982 6.81512 4.3672C6.85222 4.40439 6.88932 4.44158 6.92755 4.4799C6.96561 4.51854 7.00368 4.55718 7.0429 4.59699C7.0817 4.63582 7.12049 4.67464 7.16046 4.71464C7.41873 4.97481 7.50691 5.08231 7.50749 5.4515C7.50784 5.50434 7.50784 5.50434 7.50819 5.55824C7.50888 5.67508 7.5092 5.79192 7.50946 5.90876C7.50973 5.98993 7.50999 6.07109 7.51027 6.15226C7.51076 6.32265 7.51103 6.49304 7.5112 6.66343C7.51145 6.88148 7.51258 7.09951 7.51391 7.31755C7.51479 7.48532 7.51503 7.65309 7.5151 7.82087C7.51524 7.90123 7.51562 7.98159 7.51624 8.06195C7.51704 8.1746 7.51695 8.28721 7.51664 8.39987C7.51707 8.4329 7.51751 8.46593 7.51795 8.49996C7.51613 8.71658 7.4726 8.86301 7.35931 9.04719C7.13548 9.25423 6.97605 9.2874 6.67665 9.28986C6.63009 9.29032 6.63009 9.29032 6.58259 9.29079C6.47992 9.29172 6.37726 9.29227 6.27459 9.29273C6.22187 9.29302 6.22187 9.29302 6.16809 9.29331C5.98201 9.29429 5.79593 9.29496 5.60985 9.2954C5.41813 9.29592 5.22644 9.29753 5.03473 9.29939C4.8869 9.30062 4.73908 9.30101 4.59124 9.30118C4.5206 9.30141 4.44996 9.30195 4.37932 9.30282C3.67872 9.31093 3.67872 9.31093 3.42181 9.09406C3.25454 8.88269 3.26034 8.69181 3.26076 8.43381C3.26028 8.39132 3.25981 8.34884 3.25933 8.30507C3.25799 8.16486 3.25771 8.02468 3.25756 7.88447C3.25711 7.7868 3.25664 7.68913 3.25615 7.59147C3.2553 7.3868 3.25504 7.18215 3.25513 6.97748C3.25514 6.71555 3.25322 6.45367 3.2508 6.19176C3.24923 5.99004 3.24895 5.78834 3.24902 5.58662C3.24886 5.49008 3.24824 5.39353 3.24715 5.29699C3.24577 5.16177 3.24618 5.02667 3.24702 4.89145C3.24623 4.8518 3.24544 4.81214 3.24463 4.77129C3.24875 4.51124 3.31116 4.37714 3.49016 4.18819C3.74272 3.96848 4.10178 4.01721 4.41662 4.01747ZM4.07806 4.82844C4.07806 6.035 4.07806 7.24156 4.07806 8.48469C4.94431 8.48469 5.81056 8.48469 6.70306 8.48469C6.71946 7.94857 6.71946 7.94857 6.73053 7.41242C6.73387 7.19326 6.7378 6.97423 6.74549 6.75517C6.81438 5.88191 6.81438 5.88191 6.55358 5.08348C6.3006 4.81867 5.9867 4.78552 5.63446 4.77351C5.44692 4.77388 5.2618 4.78391 5.07415 4.79328C4.74544 4.80488 4.41673 4.81649 4.07806 4.82844Z" fill="#727272"/>
<path d="M11.2674 1.47052C11.325 1.52613 11.3817 1.58275 11.4373 1.64044C11.4633 1.666 11.4892 1.69156 11.516 1.71789C11.8697 2.09182 11.9723 2.57766 11.9655 3.07873C11.9212 3.62457 11.6899 4.09963 11.275 4.45917C10.8313 4.78551 10.3473 4.92851 9.79665 4.87481C9.22325 4.75304 8.78292 4.50904 8.43727 4.03106C8.14135 3.54741 8.06852 2.98115 8.18825 2.42944C8.36894 1.89565 8.6816 1.49915 9.17555 1.23028C9.8635 0.908132 10.6775 0.972612 11.2674 1.47052ZM9.21987 2.20587C8.97842 2.48181 8.9206 2.73279 8.93532 3.09851C8.97984 3.44215 9.15023 3.65305 9.41487 3.8681C9.66526 4.0405 9.91383 4.11471 10.2185 4.07794C10.5803 3.98486 10.8059 3.82383 11.0154 3.51544C11.1733 3.23529 11.2033 2.978 11.1341 2.66675C11.0321 2.35311 10.8431 2.10969 10.5525 1.95099C10.0615 1.73618 9.60262 1.83397 9.21987 2.20587Z" fill="#727272"/>
<path d="M10.415 9.07508C10.4516 9.07495 10.4881 9.07481 10.5258 9.07467C10.6029 9.07458 10.6799 9.07484 10.757 9.07542C10.8746 9.07618 10.9921 9.07543 11.1097 9.07453C11.1848 9.07462 11.2598 9.07481 11.3349 9.07508C11.3699 9.0748 11.4048 9.07451 11.4409 9.07422C11.6516 9.07705 11.785 9.10562 11.9531 9.23438C12.2306 9.54279 12.1992 9.84685 12.2013 10.2403C12.2018 10.3095 12.2028 10.3787 12.2042 10.4479C12.2189 11.1819 12.2189 11.1819 11.9999 11.4844C11.8022 11.6402 11.6159 11.6463 11.3732 11.6453C11.3357 11.6456 11.2982 11.6458 11.2595 11.6461C11.1805 11.6464 11.1014 11.6463 11.0223 11.6459C10.9018 11.6455 10.7815 11.6469 10.661 11.6484C10.5839 11.6484 10.5069 11.6484 10.4298 11.6483C10.3941 11.6488 10.3583 11.6493 10.3215 11.6499C10.0803 11.6467 9.93702 11.6026 9.74995 11.4375C9.60967 11.2277 9.58795 11.0382 9.589 10.7917C9.58875 10.7575 9.58851 10.7233 9.58825 10.6881C9.58795 10.6161 9.58801 10.5441 9.58841 10.4721C9.58881 10.3628 9.58746 10.2535 9.58598 10.1441C9.5859 10.0739 9.58593 10.0036 9.58607 9.9333C9.58554 9.90101 9.58502 9.86873 9.58447 9.83546C9.5881 9.57983 9.65139 9.43793 9.79682 9.23438C9.98592 9.0728 10.1761 9.07314 10.415 9.07508ZM10.4062 9.89063C10.4062 10.2155 10.4062 10.5403 10.4062 10.875C10.731 10.875 11.0559 10.875 11.3906 10.875C11.3906 10.5502 11.3906 10.2253 11.3906 9.89063C11.0657 9.89063 10.7409 9.89063 10.4062 9.89063Z" fill="#727272"/>
<path d="M13.6115 16.8607C13.6692 16.8593 13.727 16.858 13.7865 16.8566C13.8701 16.856 13.8701 16.856 13.9553 16.8554C14.0317 16.8543 14.0317 16.8543 14.1096 16.8533C14.2831 16.8805 14.3605 16.9409 14.4845 17.0628C14.5157 17.1668 14.5157 17.1668 14.5138 17.2738C14.5144 17.3091 14.515 17.3443 14.5157 17.3807C14.4691 17.5361 14.3836 17.5837 14.2501 17.6722C14.0328 17.7101 13.8142 17.7005 13.5939 17.6986C13.5343 17.6997 13.4747 17.7008 13.4134 17.702C12.9277 17.7012 12.9277 17.7012 12.7809 17.5638C12.6792 17.3988 12.6755 17.3003 12.7033 17.1097C12.8869 16.7774 13.2789 16.8633 13.6115 16.8607Z" fill="#727272"/>
<path d="M12.4685 20.3144C12.5281 20.3135 12.5877 20.3126 12.649 20.3117C13.1339 20.3143 13.1339 20.3143 13.2811 20.4525C13.3852 20.6202 13.3938 20.7123 13.3591 20.9062C13.2818 21.0308 13.2509 21.0743 13.1247 21.1406C12.9057 21.1762 12.69 21.1733 12.4685 21.1699C12.3791 21.1713 12.3791 21.1713 12.288 21.1727C11.8031 21.1701 11.8031 21.1701 11.6559 21.0319C11.5518 20.8642 11.5432 20.772 11.5779 20.5781C11.7828 20.2481 12.1145 20.3091 12.4685 20.3144Z" fill="#727272"/>
<path d="M9.98442 16.9221C10.1209 17.0296 10.1234 17.0985 10.1485 17.2707C10.125 17.4377 10.125 17.4377 10.0313 17.5754C9.87493 17.6829 9.79224 17.7076 9.60649 17.6946C9.44215 17.6538 9.37448 17.5745 9.2813 17.4377C9.25626 17.2593 9.25525 17.1567 9.34282 16.9982C9.5244 16.8234 9.75729 16.8683 9.98442 16.9221Z" fill="#727272"/>
<path d="M8.2501 16.875C8.37031 16.914 8.42023 16.9472 8.49912 17.0449C8.548 17.2138 8.53269 17.363 8.48447 17.5312C8.41123 17.625 8.41123 17.625 8.29697 17.6718C8.08193 17.6957 7.97435 17.698 7.78135 17.6015C7.67405 17.4674 7.65321 17.3734 7.66507 17.2018C7.7403 16.893 7.96756 16.839 8.2501 16.875Z" fill="#727272"/>
<path d="M7.125 20.3433C7.30269 20.4399 7.34921 20.4979 7.40918 20.692C7.40565 20.8933 7.36099 20.9552 7.21875 21.0933C7.07341 21.166 6.95724 21.1538 6.79688 21.1402C6.63427 21.0483 6.57598 20.9923 6.51562 20.815C6.51562 20.6432 6.55164 20.5716 6.65625 20.4371C6.83144 20.3203 6.9175 20.3219 7.125 20.3433Z" fill="#727272"/>
<path d="M8.82721 20.3788C8.9304 20.4553 8.96322 20.501 9.00006 20.6249C8.98498 20.9116 8.98498 20.9116 8.88581 21.0409C8.72051 21.16 8.5925 21.1577 8.39069 21.1405C8.25299 21.0732 8.25299 21.0732 8.15631 20.953C8.12303 20.8056 8.12303 20.6787 8.15631 20.5312C8.33832 20.305 8.55904 20.2919 8.82721 20.3788Z" fill="#727272"/>
<path d="M6.6562 16.8748C6.83192 16.9703 6.87987 17.0302 6.94331 17.2205C6.93745 17.3904 6.93745 17.3904 6.84663 17.5515C6.6788 17.6919 6.6788 17.6919 6.51558 17.7009C6.3828 17.6891 6.31104 17.6635 6.18745 17.6042C6.06832 17.4516 6.05959 17.3522 6.07118 17.162C6.0937 17.0623 6.0937 17.0623 6.19038 16.9421C6.36302 16.8577 6.46603 16.8476 6.6562 16.8748Z" fill="#727272"/>
<path d="M5.53131 20.3438C5.669 20.4112 5.669 20.4112 5.76568 20.5313C5.79897 20.6788 5.79897 20.8057 5.76568 20.9532C5.64017 21.1091 5.5646 21.1359 5.36724 21.1641C5.17254 21.1363 5.09788 21.1012 4.96881 20.9532C4.919 20.792 4.919 20.792 4.92193 20.625C5.09039 20.3578 5.22044 20.3174 5.53131 20.3438Z" fill="#727272"/>
</svg>
