<svg width="24" height="24" viewBox="0 0 24 24" fill="none" xmlns="http://www.w3.org/2000/svg">
<path d="M18.75 12.75C18.75 11.9216 18.0784 11.25 17.25 11.25H6.75C5.92157 11.25 5.25 11.9216 5.25 12.75V19.5C5.25 20.3284 5.92157 21 6.75 21H17.25C18.0784 21 18.75 20.3284 18.75 19.5V12.75ZM15.75 6.75C15.75 4.67893 14.0711 3 12 3C9.92893 3 8.25 4.67893 8.25 6.75V9.75H15.75V6.75ZM17.25 9.75C18.9069 9.75 20.25 11.0931 20.25 12.75V19.5C20.25 21.1569 18.9069 22.5 17.25 22.5H6.75C5.09315 22.5 3.75 21.1569 3.75 19.5V12.75C3.75 11.0931 5.09315 9.75 6.75 9.75V6.75C6.75 3.8505 9.10051 1.5 12 1.5C14.8995 1.5 17.25 3.85051 17.25 6.75V9.75Z" fill="#727272"/>
</svg>
