<svg width="62" height="62" viewBox="0 0 62 62" fill="none" xmlns="http://www.w3.org/2000/svg">
<path d="M37.4585 26.0927C40.3339 27.5627 42.6428 29.9824 43.9692 32.9374C44.1826 33.4128 44.3341 33.7499 44.4507 33.995C44.5083 34.1161 44.5513 34.2029 44.5845 34.2645C44.6065 34.3055 44.619 34.3272 44.6235 34.3348C44.8032 34.5861 44.8985 34.6624 44.9536 34.6981C45.0089 34.7338 45.1175 34.7887 45.4194 34.8495C45.5113 34.8679 45.7027 34.8749 46.5005 34.8749C51.4937 34.8751 55.5421 38.9238 55.5425 43.9169L55.5308 44.3817C55.2888 49.1592 51.338 52.9587 46.5005 52.9589H15.5005C10.6628 52.9589 6.71215 49.1593 6.47021 44.3817L6.4585 43.9169C6.4589 38.9237 10.5071 34.8749 15.5005 34.8749C16.2987 34.8749 16.4898 34.868 16.5815 34.8495C16.8833 34.7887 16.9921 34.7338 17.0474 34.6981C17.1026 34.6623 17.1983 34.5855 17.3774 34.3348C17.3821 34.327 17.3948 34.305 17.4165 34.2645C17.4496 34.2029 17.4928 34.1159 17.5503 33.995C17.6668 33.7499 17.8184 33.4126 18.0317 32.9374C19.3583 29.9823 21.6669 27.5627 24.5425 26.0927V29.0839C22.7369 30.2924 21.2882 31.9933 20.3892 33.996C20.181 34.4597 20.015 34.8274 19.8833 35.1044C19.7617 35.36 19.6285 35.6275 19.479 35.8368C19.2021 36.2241 18.8856 36.5861 18.4517 36.8671C18.0176 37.148 17.558 37.2887 17.0913 37.3827C16.6784 37.4658 16.1464 37.4589 15.5005 37.4589C11.934 37.4589 9.04286 40.3503 9.04248 43.9169C9.04248 47.4837 11.9336 50.3749 15.5005 50.3749H46.5005L46.8325 50.3671C50.2449 50.1941 52.9585 47.3722 52.9585 43.9169C52.9581 40.3504 50.0669 37.459 46.5005 37.4589C45.8546 37.4589 45.3226 37.4658 44.9097 37.3827C44.4428 37.2887 43.9834 37.148 43.5493 36.8671C43.1151 36.586 42.7989 36.2243 42.522 35.8368C42.3724 35.6275 42.2393 35.3601 42.1177 35.1044C41.986 34.8274 41.82 34.4598 41.6118 33.996C40.713 31.9935 39.2637 30.2934 37.4585 29.0848V26.0927Z" fill="#999999"/>
<path d="M30.9998 7.75L30.0865 6.83665L30.9998 5.92331L31.9132 6.83665L30.9998 7.75ZM32.2915 33.5833C32.2915 34.2967 31.7132 34.875 30.9998 34.875C30.2865 34.875 29.7082 34.2967 29.7082 33.5833L30.9998 33.5833L32.2915 33.5833ZM20.6665 18.0833L19.7532 17.17L30.0865 6.83665L30.9998 7.75L31.9132 8.66335L21.5799 18.9967L20.6665 18.0833ZM30.9998 7.75L31.9132 6.83665L42.2465 17.17L41.3332 18.0833L40.4198 18.9967L30.0865 8.66335L30.9998 7.75ZM30.9998 7.75L32.2915 7.75L32.2915 33.5833L30.9998 33.5833L29.7082 33.5833L29.7082 7.75L30.9998 7.75Z" fill="#999999"/>
</svg>
