<svg width="24" height="24" viewBox="0 0 24 24" fill="none" xmlns="http://www.w3.org/2000/svg">
<path d="M7.18986 9.33624C8.22874 9.33525 9.2248 8.92216 9.95947 8.18763C10.6941 7.4531 11.1074 6.45712 11.1086 5.41824C10.8926 0.219988 3.48598 0.221113 3.27148 5.41861C3.27268 6.45737 3.68585 7.45323 4.42036 8.18774C5.15486 8.92225 6.15073 9.33542 7.18948 9.33661L7.18986 9.33624ZM7.18986 2.24986C8.03002 2.25066 8.83554 2.58476 9.42963 3.17885C10.0237 3.77293 10.3578 4.57845 10.3586 5.41861C10.1989 9.61524 4.18048 9.61449 4.02186 5.41861C4.02265 4.57858 4.35665 3.77317 4.95058 3.17911C5.5445 2.58505 6.34983 2.25086 7.18986 2.24986Z" fill="#036BB4"/>
<path d="M7.19005 6.76329C6.71493 6.76329 6.3838 6.50754 6.3838 6.27804C6.3838 6.17858 6.3443 6.0832 6.27397 6.01287C6.20364 5.94255 6.10826 5.90304 6.0088 5.90304C5.90935 5.90304 5.81397 5.94255 5.74364 6.01287C5.67331 6.0832 5.6338 6.17858 5.6338 6.27804C5.65935 6.58427 5.79161 6.87181 6.00749 7.09051C6.22337 7.3092 6.50918 7.44516 6.81505 7.47466V7.78029C6.81505 7.87975 6.85456 7.97513 6.92489 8.04545C6.99522 8.11578 7.0906 8.15529 7.19005 8.15529C7.28951 8.15529 7.38489 8.11578 7.45522 8.04545C7.52555 7.97513 7.56505 7.87975 7.56505 7.78029V7.47466C7.87085 7.4451 8.15657 7.30917 8.37243 7.09057C8.58829 6.87197 8.7206 6.58455 8.7463 6.27841C8.7463 5.58541 8.06268 5.04316 7.19005 5.04316C6.71493 5.04316 6.3838 4.78779 6.3838 4.55791C6.42355 3.92416 7.95693 3.92341 7.9963 4.55791C7.9963 4.65737 8.03581 4.75275 8.10614 4.82308C8.17647 4.8934 8.27185 4.93291 8.3713 4.93291C8.47076 4.93291 8.56614 4.8934 8.63647 4.82308C8.7068 4.75275 8.7463 4.65737 8.7463 4.55791C8.7206 4.25177 8.58829 3.96436 8.37243 3.74576C8.15657 3.52716 7.87085 3.39123 7.56505 3.36166V3.05566C7.56505 2.95621 7.52555 2.86083 7.45522 2.7905C7.38489 2.72017 7.28951 2.68066 7.19005 2.68066C7.0906 2.68066 6.99522 2.72017 6.92489 2.7905C6.85456 2.86083 6.81505 2.95621 6.81505 3.05566V3.36129C5.0308 3.72504 5.3848 5.79579 7.19005 5.79316C8.2483 5.82091 8.24755 6.73554 7.19005 6.76329ZM3.88968 13.994L3.48205 14.1939C3.39274 14.2377 3.32447 14.3151 3.29226 14.4092C3.26005 14.5033 3.26654 14.6064 3.3103 14.6957C3.35407 14.785 3.43151 14.8532 3.52561 14.8855C3.61971 14.9177 3.72274 14.9112 3.81205 14.8674C8.82474 12.4866 13.2937 9.0994 16.9408 4.91679V5.41816C16.9408 5.51762 16.9803 5.613 17.0506 5.68333C17.121 5.75366 17.2163 5.79316 17.3158 5.79316C17.4153 5.79316 17.5106 5.75366 17.581 5.68333C17.6513 5.613 17.6908 5.51762 17.6908 5.41816V3.89979C17.6867 3.80166 17.6458 3.70867 17.5764 3.63922C17.5069 3.56977 17.4139 3.52893 17.3158 3.52479H15.7974C15.698 3.52479 15.6026 3.5643 15.5323 3.63462C15.4619 3.70495 15.4224 3.80033 15.4224 3.89979C15.4224 3.99925 15.4619 4.09463 15.5323 4.16495C15.6026 4.23528 15.698 4.27479 15.7974 4.27479H16.5036C13.0008 8.33584 8.70935 11.6427 3.88968 13.9948V13.994ZM21.8724 21.7498H20.7287V8.45566C20.7287 8.35621 20.6892 8.26083 20.6188 8.1905C20.5485 8.12017 20.4531 8.08066 20.3537 8.08066H17.3162C17.2167 8.08066 17.1213 8.12017 17.051 8.1905C16.9807 8.26083 16.9412 8.35621 16.9412 8.45566V21.7498H16.1721V11.4935C16.1721 11.3941 16.1325 11.2987 16.0622 11.2284C15.9919 11.158 15.8965 11.1185 15.7971 11.1185H12.7596C12.6601 11.1185 12.5647 11.158 12.4944 11.2284C12.4241 11.2987 12.3846 11.3941 12.3846 11.4935V21.7498H11.6158V14.5307C11.6158 14.4312 11.5763 14.3358 11.506 14.2655C11.4356 14.1952 11.3403 14.1557 11.2408 14.1557H8.2033C8.10385 14.1557 8.00847 14.1952 7.93814 14.2655C7.86781 14.3358 7.8283 14.4312 7.8283 14.5307V21.7498H7.05955V17.5685C7.05955 17.4691 7.02005 17.3737 6.94972 17.3034C6.87939 17.233 6.78401 17.1935 6.68455 17.1935H3.64705C3.5476 17.1935 3.45222 17.233 3.38189 17.3034C3.31156 17.3737 3.27205 17.4691 3.27205 17.5685V21.7498H2.12793C2.02847 21.7498 1.93309 21.7893 1.86276 21.8596C1.79244 21.9299 1.75293 22.0253 1.75293 22.1248C1.75293 22.2242 1.79244 22.3196 1.86276 22.39C1.93309 22.4603 2.02847 22.4998 2.12793 22.4998H21.8724C21.9719 22.4998 22.0673 22.4603 22.1376 22.39C22.2079 22.3196 22.2474 22.2242 22.2474 22.1248C22.2474 22.0253 22.2079 21.9299 22.1376 21.8596C22.0673 21.7893 21.9719 21.7498 21.8724 21.7498ZM4.02205 21.7498V17.9435H6.30955V21.7498H4.02205ZM8.5783 21.7498V14.9057H10.8658V21.7498H8.5783ZM13.1346 21.7498V11.8685H15.4221V21.7498H13.1346ZM17.6916 21.7498V8.83066H19.9791V21.7498H17.6916Z" fill="#036BB4"/>
</svg>
