<svg width="22" height="24" viewBox="0 0 22 24" fill="none" xmlns="http://www.w3.org/2000/svg">
<path d="M13.7505 5.87988C14.1674 5.87998 14.4957 6.06808 14.7759 6.2998C15.0428 6.52058 15.3337 6.84004 15.6665 7.20312L15.7036 7.24316C15.9868 7.55206 16.239 7.82601 16.4136 8.07422C16.598 8.33645 16.7437 8.63418 16.7437 9C16.7437 9.36582 16.598 9.66355 16.4136 9.92578C16.239 10.174 15.9868 10.4479 15.7036 10.7568L9.08252 17.9795C8.91119 18.1664 8.75142 18.3495 8.5415 18.4775C8.33143 18.6056 8.09489 18.6637 7.8501 18.7305L5.54639 19.3594C5.38614 19.4031 5.19984 19.4558 5.04248 19.4746C4.87765 19.4943 4.57787 19.499 4.33154 19.2627C4.08507 19.0261 4.07841 18.726 4.09131 18.5605C4.10364 18.4026 4.14797 18.2146 4.18506 18.0527L4.79736 15.3809C4.84924 15.1545 4.89469 14.937 4.99951 14.7373C5.1044 14.5376 5.25757 14.3763 5.41455 14.2051L11.8335 7.20312C12.1663 6.8401 12.4572 6.52058 12.7241 6.2998C13.0044 6.06801 13.3334 5.87988 13.7505 5.87988Z" stroke="white" stroke-width="1.2"/>
<path d="M11.4585 7.5L15.1252 11.5" stroke="white"/>
</svg>
