<svg width="16" height="16" viewBox="0 0 16 16" fill="none" xmlns="http://www.w3.org/2000/svg">
<path d="M10 3.77637C10.291 3.77646 10.521 3.90006 10.7109 4.04492C10.8894 4.18111 11.0838 4.37674 11.2959 4.58887L11.4102 4.7041C11.6222 4.91615 11.8179 5.10964 11.9541 5.28809C12.0991 5.47819 12.2236 5.70865 12.2236 6C12.2236 6.29135 12.0991 6.52181 11.9541 6.71191C11.8179 6.89036 11.6222 7.08385 11.4102 7.2959L6.61426 12.0928C6.50333 12.2037 6.38486 12.3273 6.2334 12.4131C6.0819 12.4988 5.9149 12.5362 5.7627 12.5742L3.99316 13.0166C3.88914 13.0426 3.75588 13.0777 3.6416 13.0889C3.52116 13.1006 3.28352 13.1017 3.09082 12.9092C2.89821 12.7166 2.89937 12.4789 2.91113 12.3584C2.9223 12.2443 2.95642 12.1108 2.98242 12.0068L3.4248 10.2373C3.46288 10.085 3.50012 9.9172 3.58594 9.76562C3.66893 9.61908 3.78839 9.50429 3.89648 9.39648L3.90137 9.39062L3.90723 9.38574L8.70312 4.58887C8.91531 4.37668 9.10955 4.18114 9.28809 4.04492C9.47816 3.89993 9.70874 3.77637 10 3.77637Z" stroke="#036BB4"/>
<path d="M8.33301 5L10.9997 7.66667" stroke="#036BB4"/>
</svg>
