<svg width="42" height="42" viewBox="0 0 42 42" fill="none" xmlns="http://www.w3.org/2000/svg">
<path d="M36.3546 31.5C37.6659 31.5 38.7088 30.6748 39.6453 29.521C41.5623 27.159 38.4148 25.2715 37.2144 24.3471C35.994 23.4073 34.6315 22.875 33.25 22.75M31.5 19.25C33.9162 19.25 35.875 17.2912 35.875 14.875C35.875 12.4588 33.9162 10.5 31.5 10.5" stroke="#696969" stroke-width="2" stroke-linecap="round"/>
<path d="M5.64543 31.5C4.33415 31.5 3.29117 30.6748 2.3547 29.521C0.437655 27.159 3.58517 25.2715 4.78563 24.3471C6.00596 23.4073 7.36852 22.875 8.75 22.75M9.625 19.25C7.20875 19.25 5.25 17.2912 5.25 14.875C5.25 12.4588 7.20875 10.5 9.625 10.5" stroke="#696969" stroke-width="2" stroke-linecap="round"/>
<path d="M14.1467 26.4446C12.3585 27.5502 7.67022 29.8079 10.5257 32.633C11.9206 34.013 13.4742 35 15.4273 35H26.5727C28.5258 35 30.0794 34.013 31.4743 32.633C34.3298 29.8079 29.6415 27.5502 27.8533 26.4446C23.6602 23.8518 18.3398 23.8518 14.1467 26.4446Z" stroke="#696969" stroke-width="2" stroke-linecap="round" stroke-linejoin="round"/>
<path d="M27.125 13.125C27.125 16.5077 24.3827 19.25 21 19.25C17.6173 19.25 14.875 16.5077 14.875 13.125C14.875 9.74226 17.6173 7 21 7C24.3827 7 27.125 9.74226 27.125 13.125Z" stroke="#696969" stroke-width="2"/>
</svg>
