<svg width="24" height="24" viewBox="0 0 24 24" fill="none" xmlns="http://www.w3.org/2000/svg">
<path d="M4.75035 5.15332H2.86816V9.85882M2.86816 7.46155H4.6009M14.544 8.33448L16.0436 9.83988M16.0255 7.50611C16.0255 8.80551 14.9762 9.85882 13.6817 9.85882C12.3874 9.85882 11.338 8.80551 11.338 7.50611C11.338 6.20672 12.3874 5.15332 13.6817 5.15332C14.9762 5.15332 16.0255 6.20672 16.0255 7.50611Z" stroke="#727272" stroke-width="0.937275" stroke-miterlimit="10" stroke-linecap="round" stroke-linejoin="round"/>
<path d="M0.46875 3.73775V11.236C0.46875 12.0156 1.10075 12.6476 1.88038 12.6476H2.3978L3.33892 14.644L5.69167 12.6476H16.9179C17.6975 12.6476 18.3296 12.0156 18.3296 11.236V3.73775C18.3296 2.95818 17.6975 2.32617 16.9179 2.32617H1.88038C1.10075 2.32617 0.46875 2.95818 0.46875 3.73775Z" stroke="#727272" stroke-width="0.937275" stroke-miterlimit="10" stroke-linecap="round" stroke-linejoin="round"/>
<path d="M18.3963 9.38608H22.1195C22.8993 9.38608 23.5312 10.0181 23.5312 10.7978V18.2654C23.5312 19.0451 22.8993 19.677 22.1195 19.677H21.6901L20.749 21.6735L18.3963 19.677H7.10304C6.32332 19.677 5.69141 19.0451 5.69141 18.2654V12.68M8.04415 14.9849H21.2196M8.04415 17.3281H21.2196M6.139 9.82993L8.01355 5.14355L9.8881 9.82993M9.32574 8.42402H6.70137" stroke="#727272" stroke-width="0.937275" stroke-miterlimit="10" stroke-linecap="round" stroke-linejoin="round"/>
</svg>
