<svg width="24" height="24" viewBox="0 0 24 24" fill="none" xmlns="http://www.w3.org/2000/svg">
<path d="M2.86261 7.96547C2.77547 7.87823 2.65453 7.82812 2.53125 7.82812C2.40797 7.82812 2.28708 7.87828 2.19984 7.96547C2.11261 8.05266 2.0625 8.17359 2.0625 8.29688C2.0625 8.42016 2.11261 8.54109 2.19984 8.62823C2.28703 8.71547 2.40797 8.76562 2.53125 8.76562C2.65453 8.76562 2.77547 8.71547 2.86261 8.62823C2.94984 8.54109 3 8.42016 3 8.29688C3 8.17359 2.94984 8.05266 2.86261 7.96547ZM20.5312 0H11.0469C10.788 0 10.5781 0.209906 10.5781 0.46875C10.5781 0.727594 10.788 0.9375 11.0469 0.9375H20.5312C20.7897 0.9375 21 1.14778 21 1.40625V22.5938C21 22.8522 20.7897 23.0625 20.5312 23.0625H3.46875C3.21028 23.0625 3 22.8522 3 22.5938V10.0469C3 9.78802 2.79009 9.57811 2.53125 9.57811C2.27241 9.57811 2.0625 9.78802 2.0625 10.0469V22.5938C2.0625 23.3692 2.69334 24 3.46875 24H20.5312C21.3067 24 21.9375 23.3692 21.9375 22.5938V1.40625C21.9375 0.630844 21.3067 0 20.5312 0Z" fill="#727272"/>
<path d="M12.0001 1.875C11.6812 1.875 11.3606 1.89937 11.0474 1.94737C10.7915 1.98666 10.6159 2.22586 10.6551 2.48175C10.6944 2.73764 10.9337 2.91305 11.1895 2.87405C11.4578 2.83305 11.7287 2.81247 12.0001 2.8125C14.9209 2.8125 17.297 5.18869 17.297 8.10942C17.297 9.40645 16.8282 10.5958 16.0514 11.5177C15.7076 10.9266 15.2381 10.4168 14.6683 10.0213C14.3388 9.79253 13.9812 9.60721 13.6043 9.46988C14.0313 9.05255 14.297 8.47097 14.297 7.82822V7.37119C14.297 6.10463 13.2666 5.07427 12.0001 5.07427C10.7336 5.07427 9.70324 6.10463 9.70324 7.37119V7.82822C9.70324 8.47097 9.96893 9.05255 10.3959 9.46988C10.0191 9.60723 9.66146 9.79255 9.33195 10.0213C8.75937 10.4187 8.28799 10.9314 7.94384 11.526C7.35195 10.8227 6.93823 9.95756 6.77637 8.99245C6.73357 8.73722 6.49165 8.565 6.23656 8.6077C5.98123 8.6505 5.80896 8.89219 5.85176 9.14752C6.09279 10.5847 6.8389 11.9002 7.9527 12.8516C9.07915 13.8139 10.5166 14.3439 12.0001 14.3439C15.4377 14.3439 18.2345 11.5471 18.2345 8.10947C18.2345 4.6718 15.4378 1.875 12.0001 1.875ZM10.6407 7.37114C10.6407 6.62156 11.2506 6.01172 12.0001 6.01172C12.7496 6.01172 13.3595 6.62156 13.3595 7.37114V7.82817C13.3595 8.5777 12.7496 9.18755 12.0001 9.18755C11.2506 9.18755 10.6407 8.5777 10.6407 7.82817V7.37114ZM12.0001 13.4063C10.731 13.4063 9.55774 12.9632 8.63946 12.2119C9.2689 10.9344 10.5557 10.125 12.0001 10.125C13.4416 10.125 14.7259 10.9311 15.3567 12.2039C14.4424 12.9549 13.273 13.4063 12.0001 13.4063ZM16.3294 18.6563H9.6731C9.41426 18.6563 9.20435 18.8663 9.20435 19.1251C9.20435 19.3839 9.41426 19.5938 9.6731 19.5938H16.3294C16.5882 19.5938 16.7981 19.3839 16.7981 19.1251C16.7981 18.8663 16.5882 18.6563 16.3294 18.6563ZM8.00215 16.1686C7.91496 16.0814 7.79402 16.0313 7.67074 16.0313C7.54746 16.0313 7.42652 16.0814 7.33934 16.1686C7.25215 16.2558 7.20199 16.3767 7.20199 16.5C7.20234 16.6242 7.25169 16.7433 7.33934 16.8314C7.42652 16.9186 7.54746 16.9688 7.67074 16.9688C7.79402 16.9688 7.91496 16.9186 8.00215 16.8314C8.08981 16.7442 8.13949 16.6233 8.13949 16.5C8.13949 16.3767 8.08981 16.2558 8.00215 16.1686ZM8.00215 18.7936C7.91411 18.7059 7.795 18.6566 7.67074 18.6563C7.54746 18.6563 7.42652 18.7064 7.33934 18.7936C7.25215 18.8808 7.20199 19.0017 7.20199 19.125C7.20234 19.2492 7.25169 19.3683 7.33934 19.4564C7.42652 19.5436 7.54746 19.5938 7.67074 19.5938C7.79402 19.5938 7.91496 19.5436 8.00215 19.4564C8.09 19.3685 8.1394 19.2493 8.13949 19.125C8.13949 19.0017 8.08981 18.8808 8.00215 18.7936ZM16.3294 16.0313H9.6731C9.41426 16.0313 9.20435 16.2413 9.20435 16.5001C9.20435 16.7589 9.41426 16.9688 9.6731 16.9688H16.3294C16.5882 16.9688 16.7981 16.7589 16.7981 16.5001C16.7981 16.2413 16.5882 16.0313 16.3294 16.0313ZM7.57634 2.70136C7.3932 2.51836 7.09648 2.51836 6.91338 2.70136L5.38685 4.22789L4.86518 3.70622C4.68204 3.52322 4.38532 3.52322 4.20223 3.70622C4.01918 3.88931 4.01918 4.18613 4.20223 4.36917L5.05535 5.2223C5.09883 5.26589 5.1505 5.30046 5.20738 5.32402C5.26426 5.34758 5.32524 5.35967 5.3868 5.35959C5.5068 5.35959 5.62671 5.3138 5.7183 5.22234L7.57634 3.36431C7.75938 3.18122 7.75938 2.88441 7.57634 2.70136Z" fill="#727272"/>
<path d="M5.90625 0C3.7868 0 2.0625 1.7243 2.0625 3.84375C2.0625 5.9632 3.7868 7.6875 5.90625 7.6875C8.0257 7.6875 9.75 5.9632 9.75 3.84375C9.75 1.7243 8.0257 0 5.90625 0ZM5.90625 6.75C4.30373 6.75 3 5.44627 3 3.84375C3 2.24123 4.30373 0.9375 5.90625 0.9375C7.50877 0.9375 8.8125 2.24123 8.8125 3.84375C8.8125 5.44627 7.50877 6.75 5.90625 6.75Z" fill="#727272"/>
</svg>
