<svg width="24" height="24" viewBox="0 0 24 24" fill="none" xmlns="http://www.w3.org/2000/svg">
<path d="M19.77 13.75H15.73C13.72 13.75 12.75 12.82 12.75 10.9V4.1C12.75 2.18 13.73 1.25 15.73 1.25H19.77C21.78 1.25 22.75 2.18 22.75 4.1V10.9C22.75 12.82 21.77 13.75 19.77 13.75ZM15.73 2.75C14.46 2.75 14.25 3.09 14.25 4.1V10.9C14.25 11.91 14.46 12.25 15.73 12.25H19.77C21.04 12.25 21.25 11.91 21.25 10.9V4.1C21.25 3.09 21.04 2.75 19.77 2.75H15.73Z" fill="#036BB4"/>
<mask id="path-2-inside-1_1_20780" fill="white">
<path d="M19.77 22.75H15.73C13.72 22.75 12.75 21.82 12.75 19.9V18.1C12.75 16.18 13.73 15.25 15.73 15.25H19.77C21.78 15.25 22.75 16.18 22.75 18.1V19.9C22.75 21.82 21.77 22.75 19.77 22.75ZM15.73 16.75C14.46 16.75 14.25 17.09 14.25 18.1V19.9C14.25 20.91 14.46 21.25 15.73 21.25H19.77C21.04 21.25 21.25 20.91 21.25 19.9V18.1C21.25 17.09 21.04 16.75 19.77 16.75H15.73Z"/>
</mask>
<path d="M19.77 22.75H15.73C13.72 22.75 12.75 21.82 12.75 19.9V18.1C12.75 16.18 13.73 15.25 15.73 15.25H19.77C21.78 15.25 22.75 16.18 22.75 18.1V19.9C22.75 21.82 21.77 22.75 19.77 22.75ZM15.73 16.75C14.46 16.75 14.25 17.09 14.25 18.1V19.9C14.25 20.91 14.46 21.25 15.73 21.25H19.77C21.04 21.25 21.25 20.91 21.25 19.9V18.1C21.25 17.09 21.04 16.75 19.77 16.75H15.73Z" fill="#036BB4"/>
<path d="M19.77 22.75V21.25H15.73V22.75V24.25H19.77V22.75ZM15.73 22.75V21.25C14.9278 21.25 14.6287 21.0621 14.5233 20.9613C14.431 20.8729 14.25 20.6247 14.25 19.9H12.75H11.25C11.25 21.0953 11.554 22.2721 12.4492 23.1287C13.3313 23.9729 14.5222 24.25 15.73 24.25V22.75ZM12.75 19.9H14.25V18.1H12.75H11.25V19.9H12.75ZM12.75 18.1H14.25C14.25 17.3793 14.4314 17.1301 14.5257 17.04C14.6336 16.937 14.9347 16.75 15.73 16.75V15.25V13.75C14.5253 13.75 13.3364 14.028 12.4543 14.87C11.5586 15.7249 11.25 16.9007 11.25 18.1H12.75ZM15.73 15.25V16.75H19.77V15.25V13.75H15.73V15.25ZM19.77 15.25V16.75C20.5722 16.75 20.8713 16.9379 20.9767 17.0387C21.069 17.1271 21.25 17.3753 21.25 18.1H22.75H24.25C24.25 16.9047 23.946 15.7279 23.0508 14.8713C22.1687 14.0271 20.9778 13.75 19.77 13.75V15.25ZM22.75 18.1H21.25V19.9H22.75H24.25V18.1H22.75ZM22.75 19.9H21.25C21.25 20.6207 21.0686 20.8699 20.9743 20.96C20.8664 21.063 20.5653 21.25 19.77 21.25V22.75V24.25C20.9747 24.25 22.1636 23.972 23.0457 23.13C23.9414 22.2751 24.25 21.0993 24.25 19.9H22.75ZM15.73 16.75V15.25C15.0994 15.25 14.1394 15.2993 13.4531 15.9856C12.7556 16.6831 12.75 17.6363 12.75 18.1H14.25H15.75C15.75 17.9975 15.7527 17.9229 15.757 17.8681C15.7613 17.8127 15.7661 17.7923 15.7653 17.7955C15.7644 17.7997 15.7549 17.8401 15.725 17.9C15.6932 17.9635 15.6442 18.0371 15.5744 18.1069C15.505 18.1763 15.4354 18.2216 15.3819 18.2487C15.3317 18.2742 15.3034 18.2798 15.3135 18.2774C15.3241 18.2748 15.3609 18.2672 15.4341 18.2607C15.5066 18.2543 15.6031 18.25 15.73 18.25V16.75ZM14.25 18.1H12.75V19.9H14.25H15.75V18.1H14.25ZM14.25 19.9H12.75C12.75 20.3637 12.7556 21.3169 13.4531 22.0144C14.1394 22.7007 15.0994 22.75 15.73 22.75V21.25V19.75C15.6031 19.75 15.5066 19.7457 15.4341 19.7393C15.3609 19.7328 15.3241 19.7252 15.3135 19.7226C15.3034 19.7202 15.3317 19.7258 15.3819 19.7513C15.4354 19.7784 15.505 19.8237 15.5744 19.8931C15.6442 19.9629 15.6932 20.0365 15.725 20.1C15.7549 20.1599 15.7644 20.2003 15.7653 20.2045C15.7661 20.2077 15.7613 20.1873 15.757 20.1319C15.7527 20.0771 15.75 20.0025 15.75 19.9H14.25ZM15.73 21.25V22.75H19.77V21.25V19.75H15.73V21.25ZM19.77 21.25V22.75C20.4006 22.75 21.3606 22.7007 22.0469 22.0144C22.7444 21.3169 22.75 20.3637 22.75 19.9H21.25H19.75C19.75 20.0025 19.7473 20.0771 19.743 20.1319C19.7387 20.1873 19.7339 20.2077 19.7347 20.2045C19.7356 20.2003 19.7451 20.1599 19.775 20.1C19.8068 20.0365 19.8558 19.9629 19.9256 19.8931C19.995 19.8237 20.0646 19.7784 20.1181 19.7513C20.1683 19.7258 20.1966 19.7202 20.1865 19.7226C20.1759 19.7252 20.1391 19.7328 20.0659 19.7393C19.9934 19.7457 19.8969 19.75 19.77 19.75V21.25ZM21.25 19.9H22.75V18.1H21.25H19.75V19.9H21.25ZM21.25 18.1H22.75C22.75 17.6363 22.7444 16.6831 22.0469 15.9856C21.3606 15.2993 20.4006 15.25 19.77 15.25V16.75V18.25C19.8969 18.25 19.9934 18.2543 20.0659 18.2607C20.1391 18.2672 20.1759 18.2748 20.1865 18.2774C20.1966 18.2798 20.1683 18.2742 20.1181 18.2487C20.0646 18.2216 19.995 18.1763 19.9256 18.1069C19.8558 18.0371 19.8068 17.9635 19.775 17.9C19.7451 17.8401 19.7356 17.7997 19.7347 17.7955C19.7339 17.7923 19.7387 17.8127 19.743 17.8681C19.7473 17.9229 19.75 17.9975 19.75 18.1H21.25ZM19.77 16.75V15.25H15.73V16.75V18.25H19.77V16.75Z" fill="#036BB4" mask="url(#path-2-inside-1_1_20780)"/>
<mask id="path-4-inside-2_1_20780" fill="white">
<path d="M8.27 22.75H4.23C2.22 22.75 1.25 21.82 1.25 19.9V13.1C1.25 11.18 2.23 10.25 4.23 10.25H8.27C10.28 10.25 11.25 11.18 11.25 13.1V19.9C11.25 21.82 10.27 22.75 8.27 22.75ZM4.23 11.75C2.96 11.75 2.75 12.09 2.75 13.1V19.9C2.75 20.91 2.96 21.25 4.23 21.25H8.27C9.54 21.25 9.75 20.91 9.75 19.9V13.1C9.75 12.09 9.54 11.75 8.27 11.75H4.23Z"/>
</mask>
<path d="M8.27 22.75H4.23C2.22 22.75 1.25 21.82 1.25 19.9V13.1C1.25 11.18 2.23 10.25 4.23 10.25H8.27C10.28 10.25 11.25 11.18 11.25 13.1V19.9C11.25 21.82 10.27 22.75 8.27 22.75ZM4.23 11.75C2.96 11.75 2.75 12.09 2.75 13.1V19.9C2.75 20.91 2.96 21.25 4.23 21.25H8.27C9.54 21.25 9.75 20.91 9.75 19.9V13.1C9.75 12.09 9.54 11.75 8.27 11.75H4.23Z" fill="#036BB4"/>
<path d="M8.27 22.75V21.25H4.23V22.75V24.25H8.27V22.75ZM4.23 22.75V21.25C3.4278 21.25 3.12869 21.0621 3.02333 20.9613C2.93098 20.8729 2.75 20.6247 2.75 19.9H1.25H-0.25C-0.25 21.0953 0.054019 22.2721 0.949167 23.1287C1.83131 23.9729 3.0222 24.25 4.23 24.25V22.75ZM1.25 19.9H2.75V13.1H1.25H-0.25V19.9H1.25ZM1.25 13.1H2.75C2.75 12.3793 2.93139 12.1301 3.02571 12.04C3.13362 11.937 3.4347 11.75 4.23 11.75V10.25V8.75C3.0253 8.75 1.83638 9.02797 0.954286 9.86997C0.0586053 10.7249 -0.25 11.9007 -0.25 13.1H1.25ZM4.23 10.25V11.75H8.27V10.25V8.75H4.23V10.25ZM8.27 10.25V11.75C9.0722 11.75 9.37131 11.9379 9.47667 12.0387C9.56902 12.1271 9.75 12.3753 9.75 13.1H11.25H12.75C12.75 11.9047 12.446 10.7279 11.5508 9.87128C10.6687 9.0271 9.4778 8.75 8.27 8.75V10.25ZM11.25 13.1H9.75V19.9H11.25H12.75V13.1H11.25ZM11.25 19.9H9.75C9.75 20.6207 9.56861 20.8699 9.47429 20.96C9.36638 21.063 9.0653 21.25 8.27 21.25V22.75V24.25C9.4747 24.25 10.6636 23.972 11.5457 23.13C12.4414 22.2751 12.75 21.0993 12.75 19.9H11.25ZM4.23 11.75V10.25C3.59942 10.25 2.63937 10.2993 1.95309 10.9856C1.25556 11.6831 1.25 12.6363 1.25 13.1H2.75H4.25C4.25 12.9975 4.25275 12.9229 4.25701 12.8681C4.2613 12.8127 4.26606 12.7923 4.26534 12.7955C4.26439 12.7997 4.25494 12.8401 4.22498 12.9C4.19322 12.9635 4.14423 13.0371 4.07441 13.1069C4.00498 13.1763 3.93538 13.2216 3.88188 13.2487C3.83167 13.2742 3.80337 13.2798 3.81351 13.2774C3.82415 13.2748 3.86091 13.2672 3.93407 13.2607C4.00658 13.2543 4.10306 13.25 4.23 13.25V11.75ZM2.75 13.1H1.25V19.9H2.75H4.25V13.1H2.75ZM2.75 19.9H1.25C1.25 20.3637 1.25556 21.3169 1.95309 22.0144C2.63937 22.7007 3.59942 22.75 4.23 22.75V21.25V19.75C4.10306 19.75 4.00658 19.7457 3.93407 19.7393C3.86091 19.7328 3.82415 19.7252 3.81351 19.7226C3.80337 19.7202 3.83167 19.7258 3.88188 19.7513C3.93538 19.7784 4.00498 19.8237 4.07441 19.8931C4.14423 19.9629 4.19322 20.0365 4.22498 20.1C4.25494 20.1599 4.26439 20.2003 4.26534 20.2045C4.26606 20.2077 4.2613 20.1873 4.25701 20.1319C4.25275 20.0771 4.25 20.0025 4.25 19.9H2.75ZM4.23 21.25V22.75H8.27V21.25V19.75H4.23V21.25ZM8.27 21.25V22.75C8.90058 22.75 9.86063 22.7007 10.5469 22.0144C11.2444 21.3169 11.25 20.3637 11.25 19.9H9.75H8.25C8.25 20.0025 8.24725 20.0771 8.24299 20.1319C8.2387 20.1873 8.23394 20.2077 8.23466 20.2045C8.23561 20.2003 8.24506 20.1599 8.27502 20.1C8.30678 20.0365 8.35577 19.9629 8.42559 19.8931C8.49502 19.8237 8.56462 19.7784 8.61812 19.7513C8.66833 19.7258 8.69663 19.7202 8.68649 19.7226C8.67585 19.7252 8.63909 19.7328 8.56593 19.7393C8.49342 19.7457 8.39694 19.75 8.27 19.75V21.25ZM9.75 19.9H11.25V13.1H9.75H8.25V19.9H9.75ZM9.75 13.1H11.25C11.25 12.6363 11.2444 11.6831 10.5469 10.9856C9.86063 10.2993 8.90058 10.25 8.27 10.25V11.75V13.25C8.39694 13.25 8.49342 13.2543 8.56593 13.2607C8.63909 13.2672 8.67585 13.2748 8.68649 13.2774C8.69663 13.2798 8.66833 13.2742 8.61812 13.2487C8.56462 13.2216 8.49502 13.1763 8.42559 13.1069C8.35577 13.0371 8.30678 12.9635 8.27502 12.9C8.24506 12.8401 8.23561 12.7997 8.23466 12.7955C8.23394 12.7923 8.2387 12.8127 8.24299 12.8681C8.24725 12.9229 8.25 12.9975 8.25 13.1H9.75ZM8.27 11.75V10.25H4.23V11.75V13.25H8.27V11.75Z" fill="#036BB4" mask="url(#path-4-inside-2_1_20780)"/>
<mask id="path-6-inside-3_1_20780" fill="white">
<path d="M8.27 8.75H4.23C2.22 8.75 1.25 7.82 1.25 5.9V4.1C1.25 2.18 2.23 1.25 4.23 1.25H8.27C10.28 1.25 11.25 2.18 11.25 4.1V5.9C11.25 7.82 10.27 8.75 8.27 8.75ZM4.23 2.75C2.96 2.75 2.75 3.09 2.75 4.1V5.9C2.75 6.91 2.96 7.25 4.23 7.25H8.27C9.54 7.25 9.75 6.91 9.75 5.9V4.1C9.75 3.09 9.54 2.75 8.27 2.75H4.23Z"/>
</mask>
<path d="M8.27 8.75H4.23C2.22 8.75 1.25 7.82 1.25 5.9V4.1C1.25 2.18 2.23 1.25 4.23 1.25H8.27C10.28 1.25 11.25 2.18 11.25 4.1V5.9C11.25 7.82 10.27 8.75 8.27 8.75ZM4.23 2.75C2.96 2.75 2.75 3.09 2.75 4.1V5.9C2.75 6.91 2.96 7.25 4.23 7.25H8.27C9.54 7.25 9.75 6.91 9.75 5.9V4.1C9.75 3.09 9.54 2.75 8.27 2.75H4.23Z" fill="#036BB4"/>
<path d="M8.27 8.75V7.25H4.23V8.75V10.25H8.27V8.75ZM4.23 8.75V7.25C3.4278 7.25 3.12869 7.0621 3.02333 6.96128C2.93098 6.8729 2.75 6.62469 2.75 5.9H1.25H-0.25C-0.25 7.09531 0.054019 8.2721 0.949167 9.12872C1.83131 9.9729 3.0222 10.25 4.23 10.25V8.75ZM1.25 5.9H2.75V4.1H1.25H-0.25V5.9H1.25ZM1.25 4.1H2.75C2.75 3.37931 2.93139 3.13006 3.02571 3.04003C3.13362 2.93703 3.4347 2.75 4.23 2.75V1.25V-0.25C3.0253 -0.25 1.83638 0.0279679 0.954286 0.869967C0.0586053 1.72493 -0.25 2.90069 -0.25 4.1H1.25ZM4.23 1.25V2.75H8.27V1.25V-0.25H4.23V1.25ZM8.27 1.25V2.75C9.0722 2.75 9.37131 2.9379 9.47667 3.03872C9.56902 3.1271 9.75 3.37531 9.75 4.1H11.25H12.75C12.75 2.90469 12.446 1.7279 11.5508 0.871276C10.6687 0.0271019 9.4778 -0.25 8.27 -0.25V1.25ZM11.25 4.1H9.75V5.9H11.25H12.75V4.1H11.25ZM11.25 5.9H9.75C9.75 6.62069 9.56861 6.86994 9.47429 6.95997C9.36638 7.06297 9.0653 7.25 8.27 7.25V8.75V10.25C9.4747 10.25 10.6636 9.97203 11.5457 9.13003C12.4414 8.27506 12.75 7.09931 12.75 5.9H11.25ZM4.23 2.75V1.25C3.59942 1.25 2.63937 1.29931 1.95309 1.98559C1.25556 2.68312 1.25 3.63629 1.25 4.1H2.75H4.25C4.25 3.99755 4.25275 3.92294 4.25701 3.86807C4.2613 3.81271 4.26606 3.79229 4.26534 3.79546C4.26439 3.79967 4.25494 3.84008 4.22498 3.89998C4.19322 3.96349 4.14423 4.03709 4.07441 4.10691C4.00498 4.17634 3.93538 4.22161 3.88188 4.24873C3.83167 4.27418 3.80337 4.27981 3.81351 4.27737C3.82415 4.27482 3.86091 4.26721 3.93407 4.26074C4.00658 4.25432 4.10306 4.25 4.23 4.25V2.75ZM2.75 4.1H1.25V5.9H2.75H4.25V4.1H2.75ZM2.75 5.9H1.25C1.25 6.36371 1.25556 7.31688 1.95309 8.01441C2.63937 8.70069 3.59942 8.75 4.23 8.75V7.25V5.75C4.10306 5.75 4.00658 5.74568 3.93407 5.73926C3.86091 5.73279 3.82415 5.72518 3.81351 5.72263C3.80337 5.72019 3.83167 5.72582 3.88188 5.75127C3.93538 5.77839 4.00498 5.82366 4.07441 5.89309C4.14423 5.96291 4.19322 6.03651 4.22498 6.10002C4.25494 6.15992 4.26439 6.20033 4.26534 6.20454C4.26606 6.20771 4.2613 6.18729 4.25701 6.13193C4.25275 6.07706 4.25 6.00245 4.25 5.9H2.75ZM4.23 7.25V8.75H8.27V7.25V5.75H4.23V7.25ZM8.27 7.25V8.75C8.90058 8.75 9.86063 8.70069 10.5469 8.01441C11.2444 7.31688 11.25 6.36371 11.25 5.9H9.75H8.25C8.25 6.00245 8.24725 6.07706 8.24299 6.13193C8.2387 6.18729 8.23394 6.20771 8.23466 6.20454C8.23561 6.20033 8.24506 6.15992 8.27502 6.10002C8.30678 6.03651 8.35577 5.96291 8.42559 5.89309C8.49502 5.82366 8.56462 5.77839 8.61812 5.75127C8.66833 5.72582 8.69663 5.72019 8.68649 5.72263C8.67585 5.72518 8.63909 5.73279 8.56593 5.73926C8.49342 5.74568 8.39694 5.75 8.27 5.75V7.25ZM9.75 5.9H11.25V4.1H9.75H8.25V5.9H9.75ZM9.75 4.1H11.25C11.25 3.63629 11.2444 2.68312 10.5469 1.98559C9.86063 1.29931 8.90058 1.25 8.27 1.25V2.75V4.25C8.39694 4.25 8.49342 4.25432 8.56593 4.26074C8.63909 4.26721 8.67585 4.27482 8.68649 4.27737C8.69663 4.27981 8.66833 4.27418 8.61812 4.24873C8.56462 4.22161 8.49502 4.17634 8.42559 4.10691C8.35577 4.03709 8.30678 3.96349 8.27502 3.89998C8.24506 3.84008 8.23561 3.79967 8.23466 3.79546C8.23394 3.79229 8.2387 3.81271 8.24299 3.86807C8.24725 3.92294 8.25 3.99755 8.25 4.1H9.75ZM8.27 2.75V1.25H4.23V2.75V4.25H8.27V2.75Z" fill="#036BB4" mask="url(#path-6-inside-3_1_20780)"/>
</svg>
