<svg width="24" height="24" viewBox="0 0 24 24" fill="none" xmlns="http://www.w3.org/2000/svg">
<path d="M9.14939 7.8313C8.98423 7.28076 8.90165 7.00549 8.87634 6.78469C8.72609 5.47388 9.62036 4.27195 10.9191 4.03921C11.1378 4 11.4252 4 12 4C12.5748 4 12.8622 4 13.0809 4.03921C14.3796 4.27195 15.2739 5.47388 15.1237 6.78469C15.0984 7.00549 15.0158 7.28076 14.8506 7.8313L13.2873 13.0422C13.1829 13.3905 13.1306 13.5646 13.0261 13.6929C12.9388 13.8001 12.8262 13.8839 12.6983 13.9368C12.5454 14 12.3636 14 12 14C11.6364 14 11.4546 14 11.3017 13.9368C11.1738 13.8839 11.0612 13.8001 10.9739 13.6929C10.8694 13.5646 10.8171 13.3905 10.7127 13.0422L9.14939 7.8313Z" stroke="#727272" stroke-width="0.833333"/>
<circle cx="12" cy="19" r="2" stroke="#727272" stroke-width="0.833333"/>
</svg>
