<svg width="34" height="34" viewBox="0 0 34 34" fill="none" xmlns="http://www.w3.org/2000/svg">
<rect width="34" height="34" rx="8" fill="#E2E2E2"/>
<path d="M19.5 14C19.5 15.3807 18.3807 16.5 17 16.5C15.6193 16.5 14.5 15.3807 14.5 14C14.5 12.6193 15.6193 11.5 17 11.5C18.3807 11.5 19.5 12.6193 19.5 14Z" stroke="#7D7D7D" stroke-width="1.5"/>
<path d="M18.2574 22.4936C17.9201 22.8184 17.4693 23 17.0002 23C16.531 23 16.0802 22.8184 15.7429 22.4936C12.6543 19.5008 8.51519 16.1575 10.5337 11.3037C11.6251 8.67932 14.2449 7 17.0002 7C19.7554 7 22.3752 8.67933 23.4666 11.3037C25.4826 16.1514 21.3536 19.5111 18.2574 22.4936Z" stroke="#7D7D7D" stroke-width="1.5"/>
<path d="M23 25C23 26.1046 20.3137 27 17 27C13.6863 27 11 26.1046 11 25" stroke="#7D7D7D" stroke-width="1.5" stroke-linecap="round"/>
</svg>
