<svg width="16" height="16" viewBox="0 0 16 16" fill="none" xmlns="http://www.w3.org/2000/svg">
<path d="M4.6665 12C3.44722 12.2745 2.6665 12.6962 2.6665 13.1691C2.6665 13.9962 5.05432 14.6667 7.99984 14.6667C10.9454 14.6667 13.3332 13.9962 13.3332 13.1691C13.3332 12.6962 12.5525 12.2745 11.3332 12" stroke="#036BB4" stroke-width="0.524257" stroke-linecap="round"/>
<path d="M9.66683 5.99992C9.66683 6.92039 8.92064 7.66659 8.00016 7.66659C7.07969 7.66659 6.3335 6.92039 6.3335 5.99992C6.3335 5.07944 7.07969 4.33325 8.00016 4.33325C8.92064 4.33325 9.66683 5.07944 9.66683 5.99992Z" stroke="#036BB4" stroke-width="0.524257"/>
<path d="M8.83843 11.6623C8.61358 11.8789 8.31304 11.9999 8.00026 11.9999C7.68749 11.9999 7.38695 11.8789 7.1621 11.6623C5.10303 9.66711 2.34362 7.43828 3.6893 4.20241C4.4169 2.4528 6.16346 1.33325 8.00026 1.33325C9.83707 1.33325 11.5836 2.4528 12.3112 4.20241C13.6552 7.4342 10.9026 9.67398 8.83843 11.6623Z" stroke="#036BB4" stroke-width="0.524257"/>
</svg>
