<svg width="16" height="16" viewBox="0 0 16 16" fill="none" xmlns="http://www.w3.org/2000/svg">
<path d="M14.6668 6.66683V6.14515C14.6668 4.85208 14.6668 4.20554 14.2763 3.80383C13.8858 3.40212 13.2572 3.40212 12.0002 3.40212H10.6144C10.0028 3.40212 9.99778 3.40093 9.44782 3.12572L7.22675 2.01426C6.29939 1.55019 5.83571 1.31816 5.34175 1.33428C4.84779 1.35041 4.39934 1.61222 3.50246 2.13584L2.68388 2.61374C2.02509 2.99836 1.69569 3.19067 1.51459 3.51059C1.3335 3.83052 1.3335 4.22012 1.3335 4.99932V10.4773C1.3335 11.5011 1.3335 12.013 1.56167 12.2979C1.7135 12.4875 1.92627 12.615 2.1615 12.6572C2.51501 12.7207 2.94782 12.468 3.81341 11.9627C4.4012 11.6195 4.9669 11.2631 5.67007 11.3597C6.25929 11.4407 6.80683 11.8125 7.3335 12.076" stroke="#036BB4" stroke-linecap="round" stroke-linejoin="round"/>
<path d="M5.3335 1.3335L5.3335 11.3335" stroke="#036BB4" stroke-linejoin="round"/>
<path d="M10 3.3335V6.3335" stroke="#036BB4" stroke-linecap="round" stroke-linejoin="round"/>
<path d="M12.2059 14.4557C12.0613 14.591 11.8681 14.6667 11.6671 14.6667C11.466 14.6667 11.2728 14.591 11.1282 14.4557C9.80455 13.2087 8.03064 11.8156 8.89572 9.79322C9.36347 8.69972 10.4863 8 11.6671 8C12.8479 8 13.9706 8.69972 14.4384 9.79322C15.3024 11.8131 13.5328 13.213 12.2059 14.4557Z" stroke="#036BB4"/>
<path d="M11.667 11H11.673" stroke="#036BB4" stroke-width="1.33333" stroke-linecap="round" stroke-linejoin="round"/>
</svg>
