<svg width="42" height="42" viewBox="0 0 42 42" fill="none" xmlns="http://www.w3.org/2000/svg">
<path d="M7 12.25L7 36.75" stroke="#696969" stroke-width="2.625" stroke-linecap="round" stroke-linejoin="round"/>
<path d="M20.5758 6.84013C14.7916 3.8937 10.2397 5.62002 7.96996 7.38359C7.56084 7.70148 7.35627 7.86043 7.17814 8.22443C7 8.58843 7 8.92742 7 9.60539V25.7809C8.69697 23.8599 13.7879 20.8824 20.5758 24.3401C26.642 27.4302 31.8046 26.1492 34.2469 24.8142C34.5858 24.6289 34.7552 24.5363 34.8776 24.3299C35 24.1236 35 23.8996 35 23.4515V10.2793C35 8.82942 35 8.10447 34.6546 7.84185C34.3093 7.57922 33.5013 7.80326 31.8854 8.25133C29.12 9.01809 25.0991 9.14431 20.5758 6.84013Z" stroke="#696969" stroke-width="2.625" stroke-linecap="round" stroke-linejoin="round"/>
</svg>
