<svg width="42" height="42" viewBox="0 0 42 42" fill="none" xmlns="http://www.w3.org/2000/svg">
<path d="M26.4752 24.0569C26.1801 24.3411 25.7857 24.5 25.3751 24.5C24.9646 24.5 24.5702 24.3411 24.275 24.0569C21.5725 21.4382 17.9508 18.5128 19.717 14.2658C20.672 11.9694 22.9643 10.5 25.3751 10.5C27.7859 10.5 30.0783 11.9694 31.0333 14.2658C32.7972 18.5075 29.1844 21.4472 26.4752 24.0569Z" stroke="#696969" stroke-width="2.625"/>
<path d="M25.375 16.625H25.3907" stroke="#696969" stroke-width="3.5" stroke-linecap="round" stroke-linejoin="round"/>
<path d="M4.375 21C4.375 13.1629 4.375 9.24435 6.80967 6.80967C9.24435 4.375 13.1629 4.375 21 4.375C28.8371 4.375 32.7557 4.375 35.1903 6.80967C37.625 9.24435 37.625 13.1629 37.625 21C37.625 28.8371 37.625 32.7557 35.1903 35.1903C32.7557 37.625 28.8371 37.625 21 37.625C13.1629 37.625 9.24435 37.625 6.80967 35.1903C4.375 32.7557 4.375 28.8371 4.375 21Z" stroke="#696969" stroke-width="2.625"/>
<path d="M29.75 36.75L5.25 12.25" stroke="#696969" stroke-width="2.625" stroke-linecap="round" stroke-linejoin="round"/>
<path d="M17.5 24.5L7 35" stroke="#696969" stroke-width="2.625" stroke-linecap="round" stroke-linejoin="round"/>
</svg>
