<svg width="24" height="24" viewBox="0 0 24 24" fill="none" xmlns="http://www.w3.org/2000/svg">
<path d="M10.1416 11.2627C10.051 11.491 10 11.7394 10 12C10 13.1046 10.8954 14 12 14C12.2604 14 12.5082 13.9479 12.7363 13.8574L14.2109 15.332C13.5774 15.7532 12.8178 16 12 16C9.79086 16 8 14.2091 8 12C8 11.1821 8.24569 10.4217 8.66699 9.78809L10.1416 11.2627ZM12 8C14.2091 8 16 9.79086 16 12C16 12.2736 15.9722 12.5407 15.9199 12.7988L11.2002 8.0791C11.4586 8.02668 11.7262 8 12 8Z" fill="#AEAEAE"/>
<path d="M7.57422 8.69531C6.29412 9.63256 5.24947 10.7623 4.58398 11.5703C4.48431 11.6913 4.40935 11.7817 4.34766 11.8613C4.29919 11.9239 4.26934 11.9686 4.24902 12C4.26934 12.0314 4.29919 12.0761 4.34766 12.1387C4.40935 12.2183 4.48431 12.3087 4.58398 12.4297C5.26418 13.2555 6.34021 14.4182 7.65918 15.3672C8.98616 16.3219 10.4743 17 12 17C13.0476 17 14.0768 16.6793 15.0488 16.1699L16.5176 17.6387C15.2045 18.4171 13.6698 18.9999 12 19C9.89018 19 7.99421 18.0725 6.49121 16.9912C4.98034 15.9042 3.77991 14.5994 3.04004 13.7012C2.74394 13.3417 2.29068 12.8546 2.23535 12.1445L2.22949 12L2.23535 11.8555C2.29068 11.1454 2.74394 10.6583 3.04004 10.2988C3.72245 9.47032 4.79634 8.29591 6.14453 7.26562L7.57422 8.69531ZM12 5C14.1098 5.00007 16.0058 5.92749 17.5088 7.00879C19.0197 8.09582 20.2201 9.40058 20.96 10.2988C21.2757 10.6822 21.7705 11.2108 21.7705 12C21.7705 12.7892 21.2757 13.3178 20.96 13.7012C20.4733 14.2921 19.7849 15.0563 18.9424 15.8213L17.5264 14.4053C18.3064 13.7056 18.9537 12.991 19.416 12.4297C19.5157 12.3087 19.5907 12.2183 19.6523 12.1387C19.7006 12.0764 19.7297 12.0314 19.75 12C19.7297 11.9686 19.7006 11.9236 19.6523 11.8613C19.5907 11.7817 19.5157 11.6913 19.416 11.5703C18.7359 10.7445 17.6598 9.58182 16.3408 8.63281C15.0139 7.67813 13.5257 7.00007 12 7C11.4492 7 10.9033 7.08922 10.3682 7.24707L8.80664 5.68555C9.79042 5.26876 10.8643 5 12 5Z" fill="#AEAEAE"/>
<path d="M5 2L21 18" stroke="#AEAEAE" stroke-width="2"/>
</svg>
