<svg width="24" height="24" viewBox="0 0 24 24" fill="none" xmlns="http://www.w3.org/2000/svg">
<mask id="mask0_1_19543" style="mask-type:luminance" maskUnits="userSpaceOnUse" x="0" y="0" width="24" height="24">
<path d="M24 0H0V24H24V0Z" fill="white"/>
</mask>
<g mask="url(#mask0_1_19543)">
<mask id="mask1_1_19543" style="mask-type:luminance" maskUnits="userSpaceOnUse" x="0" y="0" width="24" height="24">
<path d="M0 1.43051e-06H24V24H0V1.43051e-06Z" fill="white"/>
</mask>
<g mask="url(#mask1_1_19543)">
<path d="M11.7052 23.9559C11.9145 23.9924 12.1289 23.9898 12.3376 23.9481L12.3376 23.9481C12.4061 23.9344 12.4744 23.9165 12.5417 23.8943L12.5705 23.8846L12.5708 23.8845L12.6849 23.8442C17.4944 22.1307 19.9356 19.2473 21.1255 16.0209C22.3041 12.8251 22.2333 9.33934 22.1798 6.51929L22.1797 6.50998L22.1792 6.50068C22.1678 6.24972 22.1613 6.00242 22.1576 5.75598C22.1381 4.43589 21.1076 3.35885 19.7972 3.26981L19.7662 3.26788C16.9907 3.11284 14.8631 2.19973 13.0582 0.440484L13.0505 0.432966L13.0426 0.425687C12.4497 -0.117731 11.5512 -0.117731 10.9584 0.425687L10.9504 0.432966L10.9427 0.440484C9.15189 2.18599 7.04345 3.09852 4.29965 3.26411L4.23473 3.26788C2.90957 3.34191 1.86297 4.42551 1.84321 5.75594V5.75605C1.83959 6.00244 1.83313 6.24971 1.82172 6.50068L1.82127 6.50995L1.8211 6.51922C1.76767 9.32473 1.68999 12.8109 2.86508 16.0101C4.06093 19.2658 6.53176 22.1765 11.4311 23.8849V23.8848C11.5074 23.9115 11.5847 23.9323 11.6617 23.9477V23.9478L11.6621 23.9479H11.6623C11.6625 23.9479 11.6627 23.948 11.6628 23.948V23.948L11.6633 23.9481L11.7052 23.9559ZM12.0622 22.5691C12.0214 22.5772 11.9795 22.5772 11.9388 22.5691L11.9387 22.5691L11.9383 22.569C11.9224 22.5658 11.9077 22.5618 11.8945 22.5572L11.8942 22.557C7.3858 20.985 5.2335 18.3795 4.18508 15.5252C3.11682 12.6169 3.17273 9.4021 3.22697 6.55334C3.23887 6.28869 3.24559 6.03035 3.24932 5.77682L3.25008 5.74928C3.27261 5.17284 3.73084 4.70447 4.31314 4.67194H4.31318L4.38538 4.66775C7.43238 4.48361 9.86374 3.45083 11.9127 1.45871C11.9419 1.43358 11.9726 1.42434 12.0005 1.42434C12.0283 1.42435 12.0589 1.43356 12.0881 1.45857C14.1532 3.4665 16.6069 4.49983 19.6878 4.67194L19.7154 4.67383C20.2937 4.72011 20.743 5.19703 20.7516 5.77685V5.77692L20.7532 5.87353C20.7571 6.09593 20.7635 6.32222 20.7739 6.55334C20.8281 9.41431 20.8775 12.6294 19.8062 15.5343C18.7546 18.3856 16.6021 20.9849 12.1069 22.557L12.0962 22.5605C12.0854 22.5638 12.074 22.5667 12.0623 22.5691H12.0622Z" fill="#727272"/>
<path d="M16.5656 11.9999C16.5656 14.5216 14.5213 16.5659 11.9996 16.5659C9.47787 16.5659 7.43359 14.5216 7.43359 11.9999C7.4336 9.4781 9.47787 7.43381 11.9996 7.43381C14.5213 7.43381 16.5656 9.47809 16.5656 11.9999ZM17.9719 11.9999C17.9718 8.70145 15.298 6.02756 11.9996 6.02756C8.70121 6.02756 6.02735 8.70146 6.02734 11.9999C6.02734 15.2983 8.70121 17.9722 11.9996 17.9722C15.298 17.9722 17.9719 15.2983 17.9719 11.9999Z" fill="#727272"/>
<path d="M10.4452 14.4113C10.7155 14.6815 11.1511 14.6858 11.4266 14.4239L11.4396 14.4113L14.7107 11.1401L14.7234 11.1271C14.9853 10.8516 14.981 10.416 14.7107 10.1457C14.4404 9.87541 14.0048 9.87119 13.7294 10.133L13.7164 10.1457L10.4452 13.4169L10.4325 13.4299C10.1707 13.7053 10.1749 14.141 10.4452 14.4113Z" fill="#727272"/>
<path d="M10.4583 14.4239C10.7337 14.6858 11.1693 14.6815 11.4396 14.4113C11.7142 14.1367 11.7142 13.6914 11.4396 13.4169L10.1896 12.1668L10.1766 12.1542C9.90112 11.8923 9.46549 11.8965 9.19519 12.1668C8.92062 12.4414 8.92061 12.8866 9.19519 13.1612L10.4453 14.4113L10.4583 14.4239Z" fill="#727272"/>
</g>
</g>
</svg>
