<svg width="24" height="24" viewBox="0 0 24 24" fill="none" xmlns="http://www.w3.org/2000/svg">
<path d="M2.9014 13.6204C2.46081 12.8284 2.24052 12.4324 2.24052 12C2.24052 11.5676 2.46081 11.1716 2.9014 10.3796L4.43094 7.63L6.04738 4.93059C6.513 4.15301 6.74582 3.76422 7.12026 3.54804C7.4947 3.33185 7.94781 3.32463 8.85403 3.31017L12 3.26L15.146 3.31017C16.0522 3.32463 16.5053 3.33185 16.8797 3.54804C17.2542 3.76422 17.487 4.15301 17.9526 4.93059L19.5691 7.63L21.0986 10.3796C21.5392 11.1716 21.7595 11.5676 21.7595 12C21.7595 12.4324 21.5392 12.8284 21.0986 13.6204L19.5691 16.37L17.9526 19.0694C17.487 19.847 17.2542 20.2358 16.8797 20.452C16.5053 20.6681 16.0522 20.6754 15.146 20.6898L12 20.74L8.85403 20.6898C7.94781 20.6754 7.4947 20.6681 7.12026 20.452C6.74582 20.2358 6.513 19.847 6.04738 19.0694L4.43094 16.37L2.9014 13.6204Z" stroke="#036BB4"/>
<circle cx="12" cy="12" r="3" stroke="#036BB4"/>
</svg>
