<svg width="15" height="18" viewBox="0 0 15 18" fill="none" xmlns="http://www.w3.org/2000/svg">
<path d="M7.16667 17.0215V9.68815M7.16667 17.0215L1.58752 13.0364C1.17695 12.7431 0.971665 12.5965 0.860832 12.3811C0.75 12.1657 0.75 11.9135 0.75 11.4089V5.10482M7.16667 17.0215L12.7458 13.0364C13.1564 12.7431 13.3617 12.5965 13.4725 12.3811C13.5833 12.1657 13.5833 11.9135 13.5833 11.4089V5.10482M7.16667 9.68815L0.75 5.10482M7.16667 9.68815L13.5833 5.10482M0.75 5.10482L6.00419 1.35182C6.56553 0.950867 6.8462 0.750388 7.16667 0.750388C7.48713 0.750388 7.7678 0.950867 8.32914 1.35182L13.5833 5.10482" stroke="#7D7D7D" stroke-width="1.5" stroke-linejoin="round"/>
</svg>
