<svg width="15" height="18" viewBox="0 0 15 18" fill="none" xmlns="http://www.w3.org/2000/svg">
<path d="M7.10417 16.9785V9.64518M7.10417 16.9785L1.45523 12.9436C1.07887 12.6747 0.890693 12.5403 0.789096 12.3429C0.6875 12.1455 0.6875 11.9142 0.6875 11.4517V5.06185M7.10417 16.9785L12.7531 12.9436C13.1295 12.6747 13.3176 12.5403 13.4192 12.3429C13.5208 12.1455 13.5208 11.9142 13.5208 11.4517V5.06185M7.10417 9.64518L0.6875 5.06185M7.10417 9.64518L13.5208 5.06185M0.6875 5.06185L6.03856 1.23966C6.55313 0.872116 6.81041 0.688344 7.10417 0.688344C7.39793 0.688344 7.65521 0.872116 8.16977 1.23966L13.5208 5.06185" stroke="#036BB4" stroke-width="1.375" stroke-linejoin="round"/>
</svg>
