<svg width="24" height="24" viewBox="0 0 24 24" fill="none" xmlns="http://www.w3.org/2000/svg">
<path d="M20.4997 13.9003V4.05069C20.4997 3.90093 20.4517 3.70077 20.3499 3.60093L17.3499 0.600932C17.2501 0.501092 17 0.451172 16.8498 0.451172H5C4.14992 0.451172 3.5 1.10109 3.5 1.95117V20.9505C3.5 21.8006 4.14992 22.4505 5 22.4505H15.5C16.3501 23.0505 17.3499 23.4504 18.5 23.4504C21.2499 23.4504 23.5002 21.2006 23.5002 18.4502C23.4997 16.4505 22.2498 14.7005 20.4997 13.9003ZM17.4997 2.20029L18.7995 3.50013H17.9998C17.6998 3.50013 17.4997 3.29997 17.4997 2.99997V2.20029ZM5 21.5006C4.7 21.5006 4.49984 21.3005 4.49984 21.0005V2.00061C4.49984 1.70061 4.7 1.50045 5 1.50045H16.4998V3.00045C16.4998 3.85053 17.1498 4.50045 17.9998 4.50045H19.4998V13.6003C19.1698 13.5398 18.8354 13.5064 18.5 13.5005C15.7501 13.5005 13.4998 15.7507 13.4998 18.5006C13.4998 19.6526 13.8997 20.6505 14.4997 21.5006H5ZM18.5 22.5005C17.7089 22.5005 16.9356 22.2659 16.2778 21.8264C15.62 21.3869 15.1074 20.7622 14.8046 20.0313C14.5019 19.3004 14.4227 18.4962 14.577 17.7203C14.7314 16.9444 15.1123 16.2317 15.6717 15.6723C16.2311 15.1129 16.9438 14.732 17.7197 14.5776C18.4956 14.4233 19.2998 14.5025 20.0307 14.8052C20.7616 15.108 21.3862 15.6207 21.8257 16.2784C22.2653 16.9362 22.4998 17.7095 22.4998 18.5006C22.4967 19.5605 22.0742 20.576 21.3248 21.3254C20.5754 22.0749 19.5599 22.4973 18.5 22.5005Z" fill="#727272"/>
<path d="M7.49967 7.50032H11.9997C12.2997 7.50032 12.4998 7.30016 12.4998 7.00016C12.4998 6.70016 12.2997 6.5 11.9997 6.5H7.49967C7.19967 6.5 6.99951 6.70016 6.99951 7.00016C6.99951 7.30016 7.19967 7.50032 7.49967 7.50032Z" fill="#727272"/>
<path d="M7.49967 9.99984H16.4997C16.7997 9.99984 16.9998 9.79968 16.9998 9.49968C16.9998 9.19968 16.7997 9 16.4997 9H7.49967C7.19967 9 6.99951 9.20016 6.99951 9.50016C6.99951 9.80016 7.19967 9.99984 7.49967 9.99984ZM14.9997 12C14.9997 11.7 14.7995 11.4998 14.4995 11.4998H7.49967C7.19967 11.4998 6.99951 11.7 6.99951 12C6.99951 12.3 7.19967 12.5002 7.49967 12.5002H14.4995C14.7995 12.5002 14.9997 12.3 14.9997 12ZM20.1995 16.5499C19.9494 16.4501 19.6494 16.5499 19.5496 16.7501L18.3496 19.1501L17.3498 18.1502C17.3039 18.1036 17.2494 18.0666 17.1891 18.0412C17.1289 18.0158 17.0643 18.0026 16.9989 18.0023C16.9336 18.002 16.8688 18.0147 16.8084 18.0395C16.748 18.0644 16.6931 18.101 16.6469 18.1472C16.6007 18.1934 16.5641 18.2483 16.5392 18.3087C16.5143 18.3692 16.5017 18.4339 16.5019 18.4993C16.5022 18.5646 16.5154 18.6293 16.5408 18.6895C16.5662 18.7497 16.6033 18.8043 16.6499 18.8501L18.1499 20.352C18.1939 20.4009 18.2479 20.4396 18.3084 20.4656C18.3688 20.4915 18.4341 20.504 18.4998 20.5022H18.5997C18.7499 20.4542 18.8997 20.3525 18.9496 20.2522L20.4477 17.2502C20.4956 17.123 20.497 16.9829 20.4516 16.8547C20.4062 16.7265 20.3169 16.6186 20.1995 16.5499Z" fill="#727272"/>
</svg>
