<svg width="20" height="17" viewBox="0 0 20 17" fill="none" xmlns="http://www.w3.org/2000/svg">
<circle cx="14.4998" cy="13.5833" r="1.83333" stroke="#036BB4" stroke-width="1.5"/>
<circle cx="5.33333" cy="13.5833" r="1.83333" stroke="#036BB4" stroke-width="1.5"/>
<path d="M9 12.6667H12.6667M11.2917 3.5H12.156C13.3572 3.5 13.9578 3.5 14.4671 3.78831C14.9763 4.07662 15.3158 4.60891 15.9949 5.67348C16.471 6.41997 16.9708 6.9618 17.6737 7.44386C18.3813 7.92919 18.7178 8.16636 18.9045 8.54716C19.0833 8.91185 19.0833 9.34375 19.0833 10.2075C19.0833 11.3463 19.0833 11.9157 18.7634 12.2776C18.7497 12.2931 18.7356 12.3082 18.7212 12.323C18.3844 12.6667 17.8544 12.6667 16.7945 12.6667H16.3333" stroke="#036BB4" stroke-width="1.5" stroke-linecap="round" stroke-linejoin="round"/>
<path d="M10.833 3.5L11.7444 5.77843C12.1909 6.89475 12.4142 7.45291 12.8797 7.76812C13.3453 8.08333 13.9465 8.08333 15.1488 8.08333H18.1663" stroke="#036BB4" stroke-width="1.5" stroke-linecap="round" stroke-linejoin="round"/>
<path d="M3.38043 12.6667C2.14044 12.6667 1.52044 12.6667 1.13522 12.2639C0.75 11.8612 0.75 11.213 0.75 9.91667V3.5C0.75 2.20364 0.75 1.55546 1.13522 1.15273C1.52044 0.75 2.14044 0.75 3.38043 0.75H8.2029C9.4429 0.75 10.0629 0.75 10.4481 1.15273C10.8333 1.55546 10.8333 2.20364 10.8333 3.5V12.6667H6.88768" stroke="#036BB4" stroke-width="1.5" stroke-linecap="round" stroke-linejoin="round"/>
</svg>
