<svg width="20" height="17" viewBox="0 0 20 17" fill="none" xmlns="http://www.w3.org/2000/svg">
<circle cx="14.4373" cy="13.5208" r="1.83333" stroke="#7D7D7D" stroke-width="1.375"/>
<circle cx="5.27083" cy="13.5208" r="1.83333" stroke="#7D7D7D" stroke-width="1.375"/>
<path d="M8.9375 12.6042H12.6042M11.2292 3.4375H12.0935C13.2947 3.4375 13.8953 3.4375 14.4046 3.72581C14.9138 4.01412 15.2533 4.54641 15.9324 5.61098C16.4085 6.35747 16.9083 6.8993 17.6112 7.38136C18.3188 7.86669 18.6553 8.10386 18.842 8.48466C19.0208 8.84935 19.0208 9.28125 19.0208 10.145C19.0208 11.2838 19.0208 11.8532 18.7009 12.2151C18.6872 12.2306 18.6731 12.2457 18.6587 12.2605C18.3219 12.6042 17.7919 12.6042 16.732 12.6042H16.2708" stroke="#7D7D7D" stroke-width="1.375" stroke-linecap="round" stroke-linejoin="round"/>
<path d="M10.771 3.4375L11.6824 5.71593C12.1289 6.83225 12.3522 7.39041 12.8177 7.70562C13.2833 8.02083 13.8845 8.02083 15.0868 8.02083H18.1043" stroke="#7D7D7D" stroke-width="1.375" stroke-linecap="round" stroke-linejoin="round"/>
<path d="M3.31793 12.6042C2.07794 12.6042 1.45794 12.6042 1.07272 12.2014C0.6875 11.7987 0.6875 11.1505 0.6875 9.85417V3.4375C0.6875 2.14114 0.6875 1.49296 1.07272 1.09023C1.45794 0.6875 2.07794 0.6875 3.31793 0.6875H8.1404C9.3804 0.6875 10.0004 0.6875 10.3856 1.09023C10.7708 1.49296 10.7708 2.14114 10.7708 3.4375V12.6042H6.82518" stroke="#7D7D7D" stroke-width="1.375" stroke-linecap="round" stroke-linejoin="round"/>
</svg>
