<svg width="22" height="22" viewBox="0 0 22 22" fill="none" xmlns="http://www.w3.org/2000/svg">
<circle cx="15.5833" cy="16.5" r="1.83333" stroke="#7D7D7D" stroke-width="1.375"/>
<circle cx="6.41732" cy="16.5" r="1.83333" stroke="#7D7D7D" stroke-width="1.375"/>
<path d="M10.084 15.5834H13.7507M12.3757 6.41669H13.24C14.4412 6.41669 15.0418 6.41669 15.5511 6.705C16.0603 6.99331 16.3998 7.52559 17.0789 8.59017C17.555 9.33666 18.0548 9.87849 18.7576 10.3605C19.4653 10.8459 19.8018 11.0831 19.9885 11.4639C20.1673 11.8285 20.1673 12.2604 20.1673 13.1242C20.1673 14.263 20.1673 14.8324 19.8474 15.1942C19.8337 15.2098 19.8196 15.2249 19.8052 15.2396C19.4684 15.5834 18.9384 15.5834 17.8784 15.5834H17.4173" stroke="#7D7D7D" stroke-width="1.375" stroke-linecap="round" stroke-linejoin="round"/>
<path d="M11.918 6.41669L12.8293 8.69512C13.2759 9.81144 13.4991 10.3696 13.9647 10.6848C14.4303 11 15.0314 11 16.2338 11H19.2513" stroke="#7D7D7D" stroke-width="1.375" stroke-linecap="round" stroke-linejoin="round"/>
<path d="M4.46442 15.5834C3.22442 15.5834 2.60442 15.5834 2.2192 15.1806C1.83398 14.7779 1.83398 14.1297 1.83398 12.8334V6.41669C1.83398 5.12032 1.83398 4.47214 2.2192 4.06942C2.60442 3.66669 3.22442 3.66669 4.46442 3.66669H9.28688C10.5269 3.66669 11.1469 3.66669 11.5321 4.06942C11.9173 4.47214 11.9173 5.12032 11.9173 6.41669V15.5834H7.97167" stroke="#7D7D7D" stroke-width="1.375" stroke-linecap="round" stroke-linejoin="round"/>
</svg>
