<svg width="22" height="22" viewBox="0 0 22 22" fill="none" xmlns="http://www.w3.org/2000/svg">
<circle cx="15.5833" cy="16.5" r="1.83333" stroke="#036BB4" stroke-width="1.5"/>
<circle cx="6.41683" cy="16.5" r="1.83333" stroke="#036BB4" stroke-width="1.5"/>
<path d="M10.0835 15.5834H13.7502M12.3752 6.41669H13.2395C14.4407 6.41669 15.0413 6.41669 15.5506 6.705C16.0598 6.99331 16.3993 7.52559 17.0784 8.59017C17.5545 9.33666 18.0543 9.87849 18.7572 10.3605C19.4648 10.8459 19.8013 11.0831 19.988 11.4639C20.1668 11.8285 20.1668 12.2604 20.1668 13.1242C20.1668 14.263 20.1668 14.8324 19.8469 15.1942C19.8332 15.2098 19.8191 15.2249 19.8047 15.2396C19.4679 15.5834 18.9379 15.5834 17.878 15.5834H17.4168" stroke="#036BB4" stroke-width="1.5" stroke-linecap="round" stroke-linejoin="round"/>
<path d="M11.9165 6.41669L12.8279 8.69512C13.2744 9.81144 13.4977 10.3696 13.9632 10.6848C14.4288 11 15.03 11 16.2323 11H19.2498" stroke="#036BB4" stroke-width="1.5" stroke-linecap="round" stroke-linejoin="round"/>
<path d="M4.46393 15.5834C3.22393 15.5834 2.60393 15.5834 2.21871 15.1806C1.8335 14.7779 1.8335 14.1297 1.8335 12.8334V6.41669C1.8335 5.12032 1.8335 4.47214 2.21871 4.06942C2.60393 3.66669 3.22393 3.66669 4.46393 3.66669H9.28639C10.5264 3.66669 11.1464 3.66669 11.5316 4.06942C11.9168 4.47214 11.9168 5.12032 11.9168 6.41669V15.5834H7.97118" stroke="#036BB4" stroke-width="1.5" stroke-linecap="round" stroke-linejoin="round"/>
</svg>
