<svg width="16" height="16" viewBox="0 0 16 16" fill="none" xmlns="http://www.w3.org/2000/svg">
<circle cx="11.3333" cy="11.9998" r="1.33333" stroke="#036BB4" stroke-width="0.524257"/>
<circle cx="4.66683" cy="11.9998" r="1.33333" stroke="#036BB4" stroke-width="0.524257"/>
<path d="M7.3335 11.3332H10.0002M9.00016 4.6665H9.62877C10.5024 4.6665 10.9392 4.6665 11.3095 4.87618C11.6799 5.08586 11.9268 5.47298 12.4207 6.24722C12.767 6.79012 13.1305 7.18418 13.6416 7.53476C14.1562 7.88774 14.401 8.06022 14.5368 8.33717C14.6668 8.6024 14.6668 8.9165 14.6668 9.54471C14.6668 10.3729 14.6668 10.787 14.4342 11.0502C14.4242 11.0615 14.4139 11.0725 14.4034 11.0832C14.1585 11.3332 13.7731 11.3332 13.0022 11.3332H12.6668" stroke="#036BB4" stroke-width="0.524257" stroke-linecap="round" stroke-linejoin="round"/>
<path d="M8.66699 4.6665L9.32981 6.32355C9.65456 7.13541 9.81693 7.54135 10.1555 7.77059C10.4941 7.99984 10.9313 7.99984 11.8057 7.99984H14.0003" stroke="#036BB4" stroke-width="0.524257" stroke-linecap="round" stroke-linejoin="round"/>
<path d="M3.24654 11.3332C2.34472 11.3332 1.89381 11.3332 1.61365 11.0403C1.3335 10.7474 1.3335 10.276 1.3335 9.33317V4.6665C1.3335 3.72369 1.3335 3.25229 1.61365 2.9594C1.89381 2.6665 2.34472 2.6665 3.24654 2.6665H6.75379C7.6556 2.6665 8.10651 2.6665 8.38667 2.9594C8.66683 3.25229 8.66683 3.72369 8.66683 4.6665V11.3332H5.79726" stroke="#036BB4" stroke-width="0.524257" stroke-linecap="round" stroke-linejoin="round"/>
</svg>
