<svg width="62" height="62" viewBox="0 0 62 62" fill="none" xmlns="http://www.w3.org/2000/svg">
<path d="M37.459 26.0928C40.3344 27.5629 42.6433 29.9825 43.9697 32.9375C44.1831 33.4129 44.3346 33.75 44.4512 33.9951C44.5088 34.1162 44.5518 34.203 44.585 34.2646C44.607 34.3056 44.6195 34.3273 44.624 34.335C44.8036 34.5863 44.899 34.6625 44.9541 34.6982C45.0094 34.7339 45.118 34.7888 45.4199 34.8496C45.5118 34.8681 45.7032 34.875 46.501 34.875C51.4942 34.8752 55.5426 38.9239 55.543 43.917L55.5312 44.3818C55.2893 49.1593 51.3385 52.9588 46.501 52.959H15.501C10.6633 52.959 6.71264 49.1594 6.4707 44.3818L6.45898 43.917C6.45939 38.9238 10.5076 34.875 15.501 34.875C16.2992 34.875 16.4903 34.8681 16.582 34.8496C16.8838 34.7888 16.9926 34.7339 17.0479 34.6982C17.1031 34.6624 17.1987 34.5857 17.3779 34.335C17.3826 34.3271 17.3953 34.3051 17.417 34.2646C17.4501 34.203 17.4933 34.1161 17.5508 33.9951C17.6673 33.75 17.8189 33.4127 18.0322 32.9375C19.3588 29.9824 21.6674 27.5628 24.543 26.0928V29.084C22.7373 30.2925 21.2887 31.9934 20.3896 33.9961C20.1815 34.4598 20.0155 34.8275 19.8838 35.1045C19.7622 35.3601 19.629 35.6276 19.4795 35.8369C19.2026 36.2243 18.8861 36.5862 18.4521 36.8672C18.0181 37.1481 17.5585 37.2888 17.0918 37.3828C16.6789 37.4659 16.1469 37.459 15.501 37.459C11.9344 37.459 9.04334 40.3504 9.04297 43.917C9.04297 47.4838 11.9341 50.375 15.501 50.375H46.501L46.833 50.3672C50.2454 50.1942 52.959 47.3724 52.959 43.917C52.9586 40.3505 50.0674 37.4592 46.501 37.459C45.855 37.459 45.3231 37.4659 44.9102 37.3828C44.4433 37.2888 43.9839 37.1482 43.5498 36.8672C43.1156 36.5862 42.7994 36.2244 42.5225 35.8369C42.3729 35.6276 42.2398 35.3603 42.1182 35.1045C41.9865 34.8275 41.8205 34.4599 41.6123 33.9961C40.7135 31.9936 39.2642 30.2936 37.459 29.085V26.0928Z" fill="#999999"/>
<path d="M30.9993 7.75L30.086 6.83665L30.9993 5.92331L31.9127 6.83665L30.9993 7.75ZM32.291 33.5833C32.291 34.2967 31.7127 34.875 30.9993 34.875C30.286 34.875 29.7077 34.2967 29.7077 33.5833L30.9993 33.5833L32.291 33.5833ZM20.666 18.0833L19.7527 17.17L30.086 6.83665L30.9993 7.75L31.9127 8.66335L21.5794 18.9967L20.666 18.0833ZM30.9993 7.75L31.9127 6.83665L42.246 17.17L41.3327 18.0833L40.4193 18.9967L30.086 8.66335L30.9993 7.75ZM30.9993 7.75L32.291 7.75L32.291 33.5833L30.9993 33.5833L29.7077 33.5833L29.7077 7.75L30.9993 7.75Z" fill="#999999"/>
</svg>
