<svg width="16" height="16" viewBox="0 0 16 16" fill="none" xmlns="http://www.w3.org/2000/svg">
<path d="M14.3623 7.363C14.565 7.64721 14.6663 7.78932 14.6663 7.99967C14.6663 8.21003 14.565 8.35214 14.3623 8.63635C13.4516 9.91338 11.1258 12.6663 7.99967 12.6663C4.87353 12.6663 2.54774 9.91338 1.63704 8.63635C1.43435 8.35214 1.33301 8.21003 1.33301 7.99967C1.33301 7.78932 1.43435 7.64721 1.63703 7.363C2.54774 6.08597 4.87353 3.33301 7.99967 3.33301C11.1258 3.33301 13.4516 6.08597 14.3623 7.363Z" stroke="#9900FF"/>
<path d="M10 8C10 6.89543 9.10457 6 8 6C6.89543 6 6 6.89543 6 8C6 9.10457 6.89543 10 8 10C9.10457 10 10 9.10457 10 8Z" stroke="#9900FF"/>
</svg>
